<?xml version="1.0" encoding="utf-8"?>
<!-- Generator: Adobe Illustrator 19.0.0, SVG Export Plug-In . SVG Version: 6.00 Build 0)  -->
<svg version="1.1" id="Layer_1" xmlns="http://www.w3.org/2000/svg" xmlns:xlink="http://www.w3.org/1999/xlink" x="0px" y="0px"
	 viewBox="-255 25 448 512" style="enable-background:new -255 25 448 512;" xml:space="preserve">
<style type="text/css">
	.st0{fill:#ffffff;}
</style>
<path class="st0" d="M193,81.7v398.5c0,13.7-11.1,24.7-24.7,24.7H54.1V331.5h58.2l8.7-67.6H54v-43.2c0-19.6,5.4-32.9,33.5-32.9h35.8
	v-60.5c-6.2-0.8-27.4-2.7-52.2-2.7c-51.6,0-87,31.5-87,89.4v49.9h-58.4v67.6h58.4V505h-214.4c-13.6,0-24.7-11.1-24.7-24.7V81.7
	c0-13.6,11.1-24.7,24.7-24.7h398.5C181.9,57,193,68.1,193,81.7z"/>
</svg>
