<?xml version="1.0" encoding="utf-8"?>
<!-- Generator: Adobe Illustrator 19.0.0, SVG Export Plug-In . SVG Version: 6.00 Build 0)  -->
<svg version="1.1" id="Layer_1" xmlns="http://www.w3.org/2000/svg" xmlns:xlink="http://www.w3.org/1999/xlink" x="0px" y="0px"
	 viewBox="-920 532.8 77.4 16.2" style="enable-background:new -920 532.8 77.4 16.2;" xml:space="preserve">
<style type="text/css">
	.st0{fill:#FFFFFF;}
</style>
<g id="XMLID_28_">
	<path id="XMLID_29_" class="st0" d="M-911.1,538.1c0.2-0.1,0.3-0.2,0.5-0.2c0.3,0,0.5,0.1,0.8,0.3c0.2,0.2,0.3,0.4,0.3,0.7
		c0,0.1,0,0.3-0.1,0.4l-3.4,7.2c-0.1,0.2-0.3,0.4-0.5,0.5c-0.2,0.1-0.4,0.2-0.7,0.2c-0.2,0-0.5-0.1-0.7-0.2
		c-0.2-0.1-0.3-0.2-0.4-0.5l-3.4-7.1c-0.1-0.1-0.1-0.3-0.1-0.4c0-0.3,0.1-0.5,0.4-0.7c0.2-0.2,0.5-0.3,0.8-0.3c0.4,0,0.8,0.2,1,0.6
		l2.6,5.7l2.6-5.7C-911.4,538.4-911.3,538.2-911.1,538.1z"/>
	<path id="XMLID_31_" class="st0" d="M-906.5,546.7c-0.7-0.4-1.2-0.9-1.6-1.6c-0.4-0.7-0.6-1.5-0.6-2.5c0-0.9,0.2-1.8,0.6-2.5
		c0.4-0.7,0.9-1.3,1.6-1.6c0.7-0.4,1.5-0.6,2.4-0.6c0.9,0,1.7,0.2,2.4,0.6c0.7,0.4,1.2,0.9,1.6,1.6c0.4,0.7,0.6,1.5,0.6,2.5
		c0,0.9-0.2,1.8-0.6,2.5c-0.4,0.7-0.9,1.3-1.6,1.6c-0.7,0.4-1.5,0.6-2.4,0.6C-905,547.3-905.8,547.1-906.5,546.7z M-902.4,544.8
		c0.4-0.5,0.6-1.2,0.6-2.2c0-0.9-0.2-1.7-0.6-2.2c-0.4-0.5-1-0.7-1.7-0.7c-0.7,0-1.3,0.2-1.7,0.7c-0.4,0.5-0.6,1.2-0.6,2.2
		s0.2,1.7,0.6,2.2c0.4,0.5,1,0.7,1.7,0.7C-903.4,545.5-902.8,545.3-902.4,544.8z"/>
	<path id="XMLID_34_" class="st0" d="M-891.8,538.1c0.2,0.2,0.3,0.4,0.3,0.7s-0.1,0.6-0.2,0.7c-0.1,0.1-0.5,0.3-0.9,0.3l-0.6,0.1
		c-0.7,0.1-1.3,0.3-1.6,0.7c-0.3,0.4-0.5,0.9-0.5,1.6v3.9c0,0.4-0.1,0.6-0.3,0.8c-0.2,0.2-0.5,0.3-0.8,0.3c-0.3,0-0.6-0.1-0.8-0.3
		c-0.2-0.2-0.3-0.5-0.3-0.8V539c0-0.3,0.1-0.6,0.3-0.8c0.2-0.2,0.5-0.3,0.8-0.3c0.3,0,0.6,0.1,0.8,0.3c0.2,0.2,0.3,0.4,0.3,0.8v0.7
		c0.2-0.5,0.6-1,1-1.3c0.5-0.3,1-0.5,1.5-0.5h0.3C-892.2,537.9-892,538-891.8,538.1z"/>
	<path id="XMLID_36_" class="st0" d="M-883.8,538.8c0.6,0.6,0.9,1.6,0.9,2.8v4.5c0,0.3-0.1,0.6-0.3,0.8c-0.2,0.2-0.5,0.3-0.8,0.3
		s-0.6-0.1-0.8-0.3c-0.2-0.2-0.3-0.5-0.3-0.8v-0.3c-0.2,0.5-0.5,0.9-1,1.1c-0.5,0.3-1,0.4-1.6,0.4c-0.6,0-1.2-0.1-1.6-0.4
		c-0.5-0.2-0.9-0.6-1.2-1c-0.3-0.4-0.4-0.9-0.4-1.4c0-0.7,0.2-1.2,0.5-1.6c0.3-0.4,0.9-0.7,1.7-0.8c0.7-0.2,1.8-0.3,3.1-0.3h0.5
		v-0.4c0-0.6-0.1-1-0.4-1.3s-0.7-0.4-1.3-0.4c-0.4,0-0.7,0.1-1.1,0.2c-0.4,0.1-0.8,0.3-1.3,0.5c-0.3,0.2-0.6,0.2-0.7,0.2
		c-0.2,0-0.4-0.1-0.5-0.2c-0.1-0.1-0.2-0.4-0.2-0.6s0.1-0.4,0.2-0.5c0.1-0.2,0.3-0.3,0.5-0.4c0.4-0.2,0.9-0.4,1.5-0.6
		c0.6-0.1,1.2-0.2,1.8-0.2C-885.4,537.9-884.4,538.2-883.8,538.8z M-885.7,545c0.4-0.4,0.6-0.9,0.6-1.6V543h-0.3
		c-0.8,0-1.5,0-1.9,0.1c-0.5,0.1-0.8,0.2-1,0.4s-0.3,0.4-0.3,0.8s0.1,0.7,0.4,1s0.6,0.4,1,0.4C-886.6,545.7-886.1,545.4-885.7,545z"
		/>
	<path id="XMLID_39_" class="st0" d="M-872.6,538.2c0.2,0.2,0.3,0.5,0.3,0.8v7.2c0,0.3-0.1,0.6-0.3,0.8c-0.2,0.2-0.5,0.3-0.8,0.3
		c-0.3,0-0.6-0.1-0.8-0.3s-0.3-0.4-0.3-0.8v-0.4c-0.3,0.5-0.7,0.9-1.1,1.1c-0.5,0.3-1,0.4-1.6,0.4c-2.2,0-3.3-1.2-3.3-3.7V539
		c0-0.3,0.1-0.6,0.3-0.8c0.2-0.2,0.5-0.3,0.8-0.3c0.4,0,0.6,0.1,0.9,0.3c0.2,0.2,0.3,0.5,0.3,0.8v4.6c0,0.6,0.1,1.1,0.4,1.4
		s0.7,0.5,1.2,0.5c0.6,0,1.2-0.2,1.5-0.6c0.3-0.4,0.6-1,0.6-1.7V539c0-0.3,0.1-0.6,0.3-0.8c0.2-0.2,0.5-0.3,0.8-0.3
		C-873.1,537.9-872.8,538-872.6,538.2z"/>
	<path id="XMLID_41_" class="st0" d="M-869.8,546.5c-0.4-0.2-0.6-0.6-0.6-1c0-0.2,0.1-0.4,0.2-0.6c0.1-0.2,0.3-0.2,0.5-0.2
		s0.5,0.1,0.9,0.3c0.4,0.2,0.8,0.3,1.1,0.4c0.3,0.1,0.7,0.1,1.2,0.1s0.9-0.1,1.2-0.3c0.3-0.2,0.4-0.4,0.4-0.7c0-0.2-0.1-0.4-0.2-0.5
		c-0.1-0.1-0.3-0.2-0.6-0.3c-0.3-0.1-0.8-0.2-1.4-0.4c-1.1-0.2-1.9-0.5-2.4-0.9c-0.5-0.4-0.7-1-0.7-1.7c0-0.5,0.2-1,0.5-1.5
		c0.3-0.4,0.8-0.8,1.3-1c0.6-0.2,1.2-0.4,1.9-0.4c0.5,0,1,0.1,1.5,0.2c0.5,0.1,0.9,0.3,1.3,0.6c0.4,0.2,0.6,0.6,0.6,1
		c0,0.2-0.1,0.5-0.2,0.6c-0.1,0.2-0.3,0.2-0.5,0.2c-0.1,0-0.3,0-0.4-0.1c-0.1-0.1-0.3-0.1-0.5-0.2c-0.3-0.1-0.6-0.2-0.8-0.3
		c-0.3-0.1-0.6-0.1-1-0.1c-0.5,0-0.8,0.1-1.1,0.3c-0.3,0.1-0.4,0.3-0.4,0.7c0,0.3,0.1,0.5,0.4,0.7c0.3,0.1,0.8,0.3,1.6,0.4
		c0.8,0.2,1.5,0.4,1.9,0.6c0.5,0.2,0.8,0.5,1,0.8c0.2,0.3,0.3,0.8,0.3,1.3c0,0.8-0.3,1.5-1,2s-1.6,0.8-2.8,0.8
		C-867.9,547.3-869,547.1-869.8,546.5z"/>
	<path id="XMLID_43_" class="st0" d="M-860.9,546.9c-0.3-0.3-0.4-0.6-0.4-1c0-0.4,0.1-0.7,0.4-1c0.3-0.3,0.6-0.4,1-0.4
		c0.4,0,0.7,0.1,1,0.4c0.3,0.3,0.4,0.6,0.4,1c0,0.4-0.1,0.7-0.4,1c-0.3,0.3-0.6,0.4-1,0.4C-860.3,547.3-860.6,547.2-860.9,546.9z"/>
	<path id="XMLID_45_" class="st0" d="M-856.2,536c-0.2-0.2-0.4-0.5-0.4-0.9c0-0.4,0.1-0.7,0.4-0.9c0.2-0.2,0.5-0.4,1-0.4
		c0.4,0,0.7,0.1,1,0.3s0.4,0.5,0.4,0.9c0,0.4-0.2,0.7-0.4,1s-0.6,0.3-1,0.3C-855.6,536.3-856,536.2-856.2,536z M-856.1,547
		c-0.2-0.2-0.3-0.5-0.3-0.8V539c0-0.4,0.1-0.6,0.3-0.8c0.2-0.2,0.5-0.3,0.8-0.3s0.6,0.1,0.8,0.3c0.2,0.2,0.3,0.5,0.3,0.8v7.1
		c0,0.4-0.1,0.6-0.3,0.8c-0.2,0.2-0.5,0.3-0.8,0.3C-855.6,547.3-855.9,547.2-856.1,547z"/>
	<path id="XMLID_48_" class="st0" d="M-850,546.7c-0.7-0.4-1.2-0.9-1.6-1.6c-0.4-0.7-0.6-1.5-0.6-2.5c0-0.9,0.2-1.8,0.6-2.5
		c0.4-0.7,0.9-1.3,1.6-1.6c0.7-0.4,1.5-0.6,2.4-0.6c0.9,0,1.7,0.2,2.4,0.6c0.7,0.4,1.2,0.9,1.6,1.6c0.4,0.7,0.6,1.6,0.6,2.5
		c0,0.9-0.2,1.8-0.6,2.5c-0.4,0.7-0.9,1.3-1.6,1.6c-0.7,0.4-1.5,0.6-2.4,0.6C-848.5,547.3-849.3,547.1-850,546.7z M-845.9,544.8
		c0.4-0.5,0.6-1.2,0.6-2.2c0-0.9-0.2-1.7-0.6-2.2c-0.4-0.5-1-0.7-1.7-0.7c-0.7,0-1.3,0.2-1.7,0.7c-0.4,0.5-0.6,1.2-0.6,2.2
		s0.2,1.7,0.6,2.2c0.4,0.5,1,0.7,1.7,0.7C-846.8,545.5-846.3,545.3-845.9,544.8z"/>
</g>
</svg>
