<?xml version="1.0" encoding="utf-8"?>
<!-- Generator: Adobe Illustrator 19.0.0, SVG Export Plug-In . SVG Version: 6.00 Build 0)  -->
<svg version="1.1" id="Layer_1" xmlns="http://www.w3.org/2000/svg" xmlns:xlink="http://www.w3.org/1999/xlink" x="0px" y="0px"
	 viewBox="0 0 77.4 16.2" style="enable-background:new 0 0 77.4 16.2;" xml:space="preserve">
<style type="text/css">
	.st0{fill:#606060;}
</style>
<g id="XMLID_1_">
	<path id="XMLID_3_" class="st0" d="M8.9,5.3c0.2-0.1,0.3-0.2,0.5-0.2c0.3,0,0.5,0.1,0.8,0.3c0.2,0.2,0.3,0.4,0.3,0.7
		c0,0.1,0,0.3-0.1,0.4L7,13.7c-0.1,0.2-0.3,0.4-0.5,0.5c-0.2,0.1-0.4,0.2-0.7,0.2c-0.2,0-0.5-0.1-0.7-0.2S4.8,14,4.7,13.7L1.3,6.6
		C1.2,6.5,1.2,6.3,1.2,6.2c0-0.3,0.1-0.5,0.4-0.7c0.2-0.2,0.5-0.3,0.8-0.3c0.4,0,0.8,0.2,1,0.6l2.6,5.7l2.6-5.7
		C8.6,5.6,8.7,5.4,8.9,5.3z"/>
	<path id="XMLID_5_" class="st0" d="M13.5,13.9c-0.7-0.4-1.2-0.9-1.6-1.6c-0.4-0.7-0.6-1.5-0.6-2.5c0-0.9,0.2-1.8,0.6-2.5
		c0.4-0.7,0.9-1.3,1.6-1.6c0.7-0.4,1.5-0.6,2.4-0.6c0.9,0,1.7,0.2,2.4,0.6c0.7,0.4,1.2,0.9,1.6,1.6c0.4,0.7,0.6,1.5,0.6,2.5
		c0,0.9-0.2,1.8-0.6,2.5c-0.4,0.7-0.9,1.3-1.6,1.6c-0.7,0.4-1.5,0.6-2.4,0.6C15,14.5,14.2,14.3,13.5,13.9z M17.6,12
		c0.4-0.5,0.6-1.2,0.6-2.2c0-0.9-0.2-1.7-0.6-2.2c-0.4-0.5-1-0.7-1.7-0.7s-1.3,0.2-1.7,0.7c-0.4,0.5-0.6,1.2-0.6,2.2
		c0,1,0.2,1.7,0.6,2.2s1,0.7,1.7,0.7C16.6,12.7,17.2,12.5,17.6,12z"/>
	<path id="XMLID_8_" class="st0" d="M28.2,5.3c0.2,0.2,0.3,0.4,0.3,0.7c0,0.3-0.1,0.6-0.2,0.7s-0.5,0.3-0.9,0.3l-0.6,0.1
		c-0.7,0.1-1.3,0.3-1.6,0.7c-0.3,0.4-0.5,0.9-0.5,1.6v3.9c0,0.4-0.1,0.6-0.3,0.8c-0.2,0.2-0.5,0.3-0.8,0.3c-0.3,0-0.6-0.1-0.8-0.3
		s-0.3-0.5-0.3-0.8V6.2c0-0.3,0.1-0.6,0.3-0.8c0.2-0.2,0.5-0.3,0.8-0.3c0.3,0,0.6,0.1,0.8,0.3s0.3,0.4,0.3,0.8v0.7
		c0.2-0.5,0.6-1,1-1.3c0.5-0.3,1-0.5,1.5-0.5l0.3,0C27.8,5.1,28,5.2,28.2,5.3z"/>
	<path id="XMLID_10_" class="st0" d="M36.2,6c0.6,0.6,0.9,1.6,0.9,2.8v4.5c0,0.3-0.1,0.6-0.3,0.8c-0.2,0.2-0.5,0.3-0.8,0.3
		c-0.3,0-0.6-0.1-0.8-0.3c-0.2-0.2-0.3-0.5-0.3-0.8V13c-0.2,0.5-0.5,0.9-1,1.1c-0.5,0.3-1,0.4-1.6,0.4c-0.6,0-1.2-0.1-1.6-0.4
		c-0.5-0.2-0.9-0.6-1.2-1c-0.3-0.4-0.4-0.9-0.4-1.4c0-0.7,0.2-1.2,0.5-1.6c0.3-0.4,0.9-0.7,1.7-0.8C32,9.1,33.1,9,34.4,9h0.5V8.6
		c0-0.6-0.1-1-0.4-1.3s-0.7-0.4-1.3-0.4c-0.4,0-0.7,0.1-1.1,0.2c-0.4,0.1-0.8,0.3-1.3,0.5c-0.3,0.2-0.6,0.2-0.7,0.2
		c-0.2,0-0.4-0.1-0.5-0.2s-0.2-0.4-0.2-0.6c0-0.2,0.1-0.4,0.2-0.5c0.1-0.2,0.3-0.3,0.5-0.4c0.4-0.2,0.9-0.4,1.5-0.6
		c0.6-0.1,1.2-0.2,1.8-0.2C34.6,5.1,35.6,5.4,36.2,6z M34.3,12.2c0.4-0.4,0.6-0.9,0.6-1.6v-0.4h-0.3c-0.8,0-1.5,0-1.9,0.1
		c-0.5,0.1-0.8,0.2-1,0.4c-0.2,0.2-0.3,0.4-0.3,0.8c0,0.4,0.1,0.7,0.4,1c0.3,0.3,0.6,0.4,1,0.4C33.4,12.9,33.9,12.6,34.3,12.2z"/>
	<path id="XMLID_13_" class="st0" d="M47.4,5.4c0.2,0.2,0.3,0.5,0.3,0.8v7.2c0,0.3-0.1,0.6-0.3,0.8c-0.2,0.2-0.5,0.3-0.8,0.3
		c-0.3,0-0.6-0.1-0.8-0.3s-0.3-0.4-0.3-0.8V13c-0.3,0.5-0.7,0.9-1.1,1.1c-0.5,0.3-1,0.4-1.6,0.4c-2.2,0-3.3-1.2-3.3-3.7V6.2
		c0-0.3,0.1-0.6,0.3-0.8c0.2-0.2,0.5-0.3,0.8-0.3c0.4,0,0.6,0.1,0.9,0.3c0.2,0.2,0.3,0.5,0.3,0.8v4.6c0,0.6,0.1,1.1,0.4,1.4
		c0.3,0.3,0.7,0.5,1.2,0.5c0.6,0,1.2-0.2,1.5-0.6s0.6-1,0.6-1.7V6.2c0-0.3,0.1-0.6,0.3-0.8c0.2-0.2,0.5-0.3,0.8-0.3
		C46.9,5.1,47.2,5.2,47.4,5.4z"/>
	<path id="XMLID_15_" class="st0" d="M50.2,13.7c-0.4-0.2-0.6-0.6-0.6-1c0-0.2,0.1-0.4,0.2-0.6c0.1-0.2,0.3-0.2,0.5-0.2
		c0.2,0,0.5,0.1,0.9,0.3c0.4,0.2,0.8,0.3,1.1,0.4c0.3,0.1,0.7,0.1,1.2,0.1c0.5,0,0.9-0.1,1.2-0.3c0.3-0.2,0.4-0.4,0.4-0.7
		c0-0.2-0.1-0.4-0.2-0.5c-0.1-0.1-0.3-0.2-0.6-0.3c-0.3-0.1-0.8-0.2-1.4-0.4c-1.1-0.2-1.9-0.5-2.4-0.9c-0.5-0.4-0.7-1-0.7-1.7
		c0-0.5,0.2-1,0.5-1.5c0.3-0.4,0.8-0.8,1.3-1c0.6-0.2,1.2-0.4,1.9-0.4c0.5,0,1,0.1,1.5,0.2c0.5,0.1,0.9,0.3,1.3,0.6
		c0.4,0.2,0.6,0.6,0.6,1c0,0.2-0.1,0.5-0.2,0.6c-0.1,0.2-0.3,0.2-0.5,0.2c-0.1,0-0.3,0-0.4-0.1c-0.1-0.1-0.3-0.1-0.5-0.2
		C55,7.2,54.7,7.1,54.5,7c-0.3-0.1-0.6-0.1-1-0.1c-0.5,0-0.8,0.1-1.1,0.3C52.1,7.3,52,7.5,52,7.9c0,0.3,0.1,0.5,0.4,0.7
		C52.7,8.7,53.2,8.9,54,9c0.8,0.2,1.5,0.4,1.9,0.6c0.5,0.2,0.8,0.5,1,0.8c0.2,0.3,0.3,0.8,0.3,1.3c0,0.8-0.3,1.5-1,2
		c-0.7,0.5-1.6,0.8-2.8,0.8C52.1,14.5,51,14.3,50.2,13.7z"/>
	<path id="XMLID_17_" class="st0" d="M59.1,14.1c-0.3-0.3-0.4-0.6-0.4-1s0.1-0.7,0.4-1s0.6-0.4,1-0.4c0.4,0,0.7,0.1,1,0.4
		s0.4,0.6,0.4,1s-0.1,0.7-0.4,1s-0.6,0.4-1,0.4C59.7,14.5,59.4,14.4,59.1,14.1z"/>
	<path id="XMLID_19_" class="st0" d="M63.8,3.2c-0.2-0.2-0.4-0.5-0.4-0.9s0.1-0.7,0.4-0.9C64,1.2,64.3,1,64.8,1c0.4,0,0.7,0.1,1,0.3
		c0.3,0.2,0.4,0.5,0.4,0.9S66,2.9,65.8,3.2s-0.6,0.3-1,0.3S64,3.4,63.8,3.2z M63.9,14.2c-0.2-0.2-0.3-0.5-0.3-0.8V6.2
		c0-0.4,0.1-0.6,0.3-0.8c0.2-0.2,0.5-0.3,0.8-0.3c0.3,0,0.6,0.1,0.8,0.3c0.2,0.2,0.3,0.5,0.3,0.8v7.1c0,0.4-0.1,0.6-0.3,0.8
		c-0.2,0.2-0.5,0.3-0.8,0.3C64.4,14.5,64.1,14.4,63.9,14.2z"/>
	<path id="XMLID_22_" class="st0" d="M70,13.9c-0.7-0.4-1.2-0.9-1.6-1.6c-0.4-0.7-0.6-1.5-0.6-2.5c0-0.9,0.2-1.8,0.6-2.5
		c0.4-0.7,0.9-1.3,1.6-1.6c0.7-0.4,1.5-0.6,2.4-0.6c0.9,0,1.7,0.2,2.4,0.6c0.7,0.4,1.2,0.9,1.6,1.6C76.8,8,77,8.9,77,9.8
		c0,0.9-0.2,1.8-0.6,2.5c-0.4,0.7-0.9,1.3-1.6,1.6c-0.7,0.4-1.5,0.6-2.4,0.6C71.5,14.5,70.7,14.3,70,13.9z M74.1,12
		c0.4-0.5,0.6-1.2,0.6-2.2c0-0.9-0.2-1.7-0.6-2.2c-0.4-0.5-1-0.7-1.7-0.7s-1.3,0.2-1.7,0.7c-0.4,0.5-0.6,1.2-0.6,2.2
		c0,1,0.2,1.7,0.6,2.2s1,0.7,1.7,0.7C73.2,12.7,73.7,12.5,74.1,12z"/>
</g>
</svg>
