<?xml version="1.0" encoding="utf-8"?>
<!-- Generator: Adobe Illustrator 19.0.0, SVG Export Plug-In . SVG Version: 6.00 Build 0)  -->
<svg version="1.1" id="Layer_1" xmlns="http://www.w3.org/2000/svg" xmlns:xlink="http://www.w3.org/1999/xlink" x="0px" y="0px"
	 viewBox="0 0 772.3 233" style="enable-background:new 0 0 772.3 233;" xml:space="preserve">
<style type="text/css">
	.st0{fill:#FFFFFF;}
</style>
<path id="XMLID_20_" class="st0" d="M116.6,3.7C53.8,3.7,2.8,54.5,2.8,116.8S53.8,230,116.6,230c62.8,0,113.9-50.8,113.9-113.2
	S179.4,3.7,116.6,3.7z M131,223.1V188h-6v35.1c0,0.2,0,0.4,0,0.6c-2.8,0.2-5.5,0.3-8.3,0.3c-2.2,0-4.4-0.1-6.6-0.2
	c0-0.2-0.1-0.5-0.1-0.7V188h-6v35.1c0,0.1,0,0.1,0,0.2C50.5,217,8.8,171.7,8.8,116.8c0-2.4,0.1-4.8,0.2-7.1
	C23,117,41,124,63.1,128.8l1.5-5.8c-18.8-4-36.4-10.2-52.4-18.4l0,0l-2.6-1.3c0.7-5.8,1.9-11.4,3.6-16.9l3.8,2v0
	c13,7.2,30.3,15.3,54.2,20.3l3.7-5.3c-27.3-5.4-47-14.9-59.7-23C30.2,39.3,70,9.7,116.6,9.7c46.5,0,86.3,29.4,101.4,70.5
	c-12.7,8.1-32.6,17.8-60.3,23.3l3.9,5.3c23.9-5,41.4-13.2,54.4-20.3v0l4-2.2c1.6,5.4,2.8,11,3.6,16.7l-3.3,1.6l0,0
	c-16,8.2-33.6,14.4-52.4,18.4l1.5,5.8c22.5-4.9,40.7-12.1,54.8-19.4c0.2,2.5,0.3,4.9,0.3,7.4C224.5,171.1,183.7,216,131,223.1z"/>
<g id="XMLID_7_">
	
		<image style="overflow:visible;opacity:0.3;" width="136" height="126" id="XMLID_189_" xlink:href="922E81A8.png"  transform="matrix(1 0 0 1 49 77)">
	</image>
	<g id="XMLID_148_">
		<g id="XMLID_185_">
			<path id="XMLID_186_" class="st0" d="M86.9,95.2c0,0,0.5,0,0.5,0.5v20.7c0,0.1,0,0.2,0,0.2c-3.6,5.8-5.5,12.2-5.5,18.4
				c0,19.3,15.6,35,34.8,35c1.6,0,3.3-0.1,4.9-0.3c17.2-2.4,30.1-17.3,30-34.8c0-6.3-1.7-12.4-4.9-17.5c0,0,0-0.1,0-0.2V96
				c0-0.5,0.5-0.5,0.5-0.5c0.1,0,0.2,0,0.3,0.1c12.1,9.3,19.1,23.6,19.1,39.2c0,27.5-22.3,49.9-49.7,49.9c-0.7,0-1.4,0-2.1,0
				c-12.6-0.5-24.5-5.9-33.4-15c-8.9-9.2-14-21.2-14.3-33.8c-0.3-16.2,6.8-31,19.7-40.7C86.8,95.2,86.9,95.2,86.9,95.2L86.9,95.2
				 M86.9,89.2c-1.3,0-2.6,0.4-3.8,1.3c-13.8,10.5-22.4,27.1-22.1,45.7c0.6,29.3,24.2,53.5,53.5,54.7c0.8,0,1.6,0,2.4,0
				c30.8,0,55.7-25.1,55.7-55.9c0-17.8-8.1-33.7-21.4-44c-1.2-1-2.6-1.4-4-1.4c-3.4,0-6.5,2.6-6.5,6.5v21.1c0,1.2,0.3,2.3,0.9,3.3
				c2.6,4.2,4,9.2,4,14.4c0.1,14.4-10.6,26.9-24.8,28.9c-1.4,0.2-2.8,0.3-4.1,0.3c-16,0-28.8-13-28.8-29c0-5.6,1.9-10.8,4.6-15.3
				c0.6-1,0.9-2.1,0.9-3.3V95.7C93.4,91.9,90.2,89.2,86.9,89.2L86.9,89.2z"/>
		</g>
	</g>
</g>
<g id="XMLID_5_">
	<path id="XMLID_4_" class="st0" d="M118.1,67.6c3.3,0,6,2.7,6,6v49.7c0,3.3-2.7,6-6,6h-2.5c-3.3,0-6-2.7-6-6V73.6c0-3.3,2.7-6,6-6
		H118.1 M118.1,61.6h-2.5c-6.6,0-12,5.4-12,12v49.7c0,6.6,5.4,12,12,12h2.5c6.6,0,12-5.4,12-12V73.6C130.1,67,124.7,61.6,118.1,61.6
		L118.1,61.6z"/>
</g>
<g id="XMLID_2_">
	<path id="XMLID_55_" class="st0" d="M365,66.8c1.9,0,3.6,0.6,5.2,1.9c1.5,1.3,2.3,2.9,2.3,4.7c0,0.7-0.2,1.6-0.7,2.7l-40.6,89
		c-0.7,1.5-1.7,2.7-3.2,3.6c-1.4,0.9-3,1.3-4.6,1.3c-1.6,0-3.2-0.4-4.7-1.3c-1.5-0.9-2.6-2.1-3.2-3.6l-40.5-89
		c-0.5-1.2-0.7-2.1-0.7-2.7c0-1.9,0.8-3.5,2.4-4.8c1.6-1.2,3.3-1.9,5.3-1.9c3,0,5.1,1.3,6.3,4l35.3,79.1l35.3-79.1
		C360,68.1,362.1,66.8,365,66.8z"/>
	<path id="XMLID_57_" class="st0" d="M466.5,163.4c0,1.8-0.7,3.4-2.2,4.6c-1.5,1.2-3.1,1.9-5,1.9c-1.2,0-2.4-0.4-3.5-1.1
		c-1.1-0.7-1.9-1.8-2.5-3.1l-9.5-21.6H391l-9.5,21.6c-0.6,1.3-1.4,2.4-2.6,3.1s-2.4,1.1-3.6,1.1c-1.9,0-3.6-0.6-5.1-1.9
		c-1.5-1.2-2.2-2.8-2.2-4.6c0-0.8,0.2-1.7,0.7-2.9l40.6-88.8c0.7-1.5,1.8-2.7,3.2-3.6c1.5-0.9,3-1.3,4.7-1.3c1.6,0,3.2,0.4,4.7,1.3
		c1.5,0.9,2.6,2.1,3.2,3.6l40.6,88.8C466.3,161.7,466.5,162.6,466.5,163.4z M396.4,132.3h42.2l-21.2-47.7L396.4,132.3z"/>
	<path id="XMLID_60_" class="st0" d="M493.6,167.3c-6.6-2-11.8-4.8-15.8-8.4c-1.8-1.5-2.7-3.5-2.7-5.9c0-1.7,0.5-3.2,1.4-4.4
		c1-1.2,2.1-1.8,3.5-1.8c1.3,0,3,0.6,4.9,1.9c8.5,6.3,18.3,9.5,29.2,9.5c7.7,0,13.6-1.4,17.7-4.3c4.1-2.9,6.2-7,6.2-12.4
		c0-4.2-1.9-7.4-5.8-9.5c-3.8-2.1-10-4.1-18.4-6c-8.1-1.7-14.7-3.7-19.9-5.9c-5.2-2.2-9.2-5.2-12.2-9c-2.9-3.8-4.4-8.6-4.4-14.5
		c0-5.9,1.6-11.1,4.8-15.6c3.2-4.6,7.7-8.1,13.5-10.7c5.8-2.5,12.3-3.8,19.7-3.8c6.8,0,13.1,1,18.9,2.9c5.8,1.9,10.7,4.8,14.7,8.5
		c1.9,1.6,2.9,3.6,2.9,5.9c0,1.6-0.5,3.1-1.5,4.3c-1,1.2-2.2,1.9-3.5,1.9c-1.2,0-2.8-0.6-4.8-1.9c-4.4-3.4-8.6-5.8-12.5-7.3
		c-3.9-1.5-8.6-2.2-14-2.2c-7.4,0-13.2,1.5-17.3,4.5c-4.1,3-6.2,7.2-6.2,12.6c0,4.6,1.8,8.1,5.5,10.4c3.6,2.4,9.5,4.5,17.6,6.4
		c8.4,1.9,15.3,3.9,20.5,6c5.2,2.1,9.4,4.9,12.5,8.5c3.1,3.6,4.7,8.2,4.7,13.9c0,5.8-1.6,10.9-4.8,15.3c-3.2,4.5-7.7,7.9-13.5,10.4
		c-5.8,2.4-12.5,3.7-20.1,3.7C507.2,170.3,500.2,169.3,493.6,167.3z"/>
	<path id="XMLID_62_" class="st0" d="M573.2,167.8c-1.3-1.4-2-3.2-2-5.4V74.8c0-2.2,0.6-4,1.9-5.3s3.1-1.9,5.4-1.9h51.6
		c4.6,0,6.9,2,6.9,6c0,4-2.3,6-6.9,6h-44.2v31.8h41.3c4.6,0,6.9,2,6.9,6c0,4-2.3,6-6.9,6h-41.3v38.7c0,2.3-0.6,4.1-1.9,5.5
		c-1.3,1.3-3.1,2-5.4,2C576.3,169.9,574.5,169.2,573.2,167.8z"/>
	<path id="XMLID_64_" class="st0" d="M653.9,167.2c-1.3-1.3-1.9-3-1.9-5.3V74.8c0-2.2,0.6-4,1.9-5.3s3.1-1.9,5.4-1.9h53
		c2.2,0,3.9,0.5,5.1,1.6c1.2,1.1,1.8,2.5,1.8,4.5c0,1.9-0.6,3.4-1.8,4.4c-1.2,1-2.9,1.5-5.1,1.5h-45.8v32h42.9
		c2.2,0,3.9,0.5,5.1,1.6c1.2,1.1,1.8,2.5,1.8,4.5c0,1.9-0.6,3.4-1.8,4.5c-1.2,1.1-2.9,1.6-5.1,1.6h-42.9v33.6h45.8
		c4.6,0,6.9,2,6.9,5.9c0,1.9-0.6,3.4-1.8,4.5c-1.2,1.1-2.9,1.6-5.1,1.6h-53C657,169.2,655.2,168.5,653.9,167.2z"/>
</g>
<g id="XMLID_6_">
	<path id="XMLID_119_" class="st0" d="M116.3,12.8c57.3,0,104,46.7,104,104s-46.7,104-104,104s-104-46.7-104-104S59,12.8,116.3,12.8
		 M116.3,2.8c-63,0-114,51-114,114s51,114,114,114s114-51,114-114S179.3,2.8,116.3,2.8L116.3,2.8z"/>
</g>
</svg>
