<?xml version="1.0" encoding="utf-8"?>
<!-- Generator: Adobe Illustrator 19.0.0, SVG Export Plug-In . SVG Version: 6.00 Build 0)  -->
<svg version="1.1" id="Layer_1" xmlns="http://www.w3.org/2000/svg" xmlns:xlink="http://www.w3.org/1999/xlink" x="0px" y="0px"
	 viewBox="0 0 699.9 697.1" style="enable-background:new 0 0 699.9 697.1;" xml:space="preserve">
<style type="text/css">
	.st0{fill:url(#XMLID_236_);}
	.st1{fill:url(#XMLID_237_);}
	.st2{fill:url(#XMLID_238_);}
	.st3{fill:#F2F2F2;}
	.st4{fill:#F5F5F5;}
	.st5{fill:url(#XMLID_239_);}
	.st6{fill:#FFFFFF;}
	.st7{fill:#FF5252;}
	.st8{fill:#FFFF00;}
	.st9{fill:#69F0AE;}
	.st10{fill:#88B3FF;}
	.st11{fill:url(#XMLID_240_);}
	.st12{fill:url(#XMLID_241_);}
	.st13{fill:url(#XMLID_242_);}
	.st14{fill:#0E053F;}
	.st15{fill:url(#XMLID_243_);}
	.st16{fill:url(#XMLID_244_);}
	.st17{fill:url(#XMLID_245_);}
	.st18{fill:#FFAA55;}
	.st19{fill:#2DFC68;}
	.st20{fill:url(#XMLID_246_);}
	.st21{fill:#6C63FF;}
	.st22{fill:url(#XMLID_247_);}
	.st23{opacity:0.5;fill:#FFFFFF;enable-background:new    ;}
	.st24{fill:url(#XMLID_248_);}
	.st25{fill:none;stroke:#6C63FF;stroke-miterlimit:10;}
	.st26{fill:none;stroke:#6C63FF;stroke-miterlimit:10;stroke-dasharray:11.51,11.51;}
	.st27{fill:none;stroke:#6C63FF;stroke-miterlimit:10;stroke-dasharray:13.06,13.06;}
	.st28{fill:none;stroke:#6C63FF;stroke-miterlimit:10;stroke-dasharray:9.79,9.79;}
	.st29{fill:none;stroke:#6C63FF;stroke-miterlimit:10;stroke-dasharray:11.28,11.28;}
	.st30{fill:none;stroke:#6C63FF;stroke-miterlimit:10;stroke-dasharray:11.93,11.93;}
	.st31{fill:url(#XMLID_249_);}
	.st32{fill:url(#XMLID_250_);}
	.st33{opacity:0.2;}
	.st34{fill:url(#XMLID_251_);}
	.st35{fill:url(#XMLID_252_);}
	.st36{fill:#CA7070;}
	.st37{fill:url(#cbb1ca8a-3a06-4d8d-9881-c3637d2b9b50_1_);}
	.st38{opacity:0.2;fill:#FFFFFF;enable-background:new    ;}
	.st39{fill:url(#ec846da8-b8c9-4838-98ee-b96510078eab_1_);}
	.st40{fill:url(#XMLID_253_);}
	.st41{fill:url(#XMLID_254_);}
	.st42{fill:#263238;}
	.st43{fill:url(#XMLID_255_);}
	.st44{fill:url(#XMLID_256_);}
	.st45{fill:url(#XMLID_257_);}
	.st46{fill:#F6B9AD;}
	.st47{fill:url(#XMLID_258_);}
	.st48{fill:url(#XMLID_259_);}
	.st49{fill:url(#XMLID_260_);}
	.st50{fill:url(#XMLID_261_);}
	.st51{fill:#FCCC63;}
	.st52{fill:url(#XMLID_262_);}
	.st53{fill:url(#XMLID_263_);}
	.st54{fill:url(#XMLID_264_);}
	.st55{fill:url(#XMLID_265_);}
	.st56{fill:url(#XMLID_266_);}
	.st57{fill:url(#XMLID_267_);}
	.st58{fill:url(#XMLID_268_);}
	.st59{fill:url(#XMLID_269_);}
	.st60{fill:none;stroke:#0E053F;stroke-width:3;stroke-miterlimit:10;}
	.st61{fill:url(#XMLID_270_);}
	.st62{fill:url(#XMLID_271_);}
	.st63{opacity:0.2;enable-background:new    ;}
	.st64{fill:url(#XMLID_272_);}
	.st65{fill:url(#XMLID_273_);}
	.st66{fill:#985454;}
	.st67{fill:url(#_x34_635430b-7803-4f1f-9770-b56b2b482545_1_);}
	.st68{fill:url(#a892faa3-7b18-4010-9d55-72c2aac7ddb8_1_);}
	.st69{fill:url(#XMLID_274_);}
	.st70{fill:url(#XMLID_275_);}
	.st71{fill:url(#XMLID_276_);}
</style>
<g id="XMLID_221_">
	
		<linearGradient id="XMLID_236_" gradientUnits="userSpaceOnUse" x1="526.9634" y1="457.1056" x2="620.3911" y2="295.2842" gradientTransform="matrix(0.6109 -0.7917 0.7917 0.6109 -41.9007 510.9139)">
		<stop  offset="0" style="stop-color:#00FFC9"/>
		<stop  offset="0.1736" style="stop-color:#04FFC0"/>
		<stop  offset="0.4623" style="stop-color:#10FEA6"/>
		<stop  offset="0.8282" style="stop-color:#23FD7D"/>
		<stop  offset="0.9944" style="stop-color:#2DFC68"/>
	</linearGradient>
	<path id="XMLID_207_" class="st0" d="M609.9,371.9L492.4,269.6c-13.8-12-9.4-34.5,7.9-40.4l147.3-50.7c17.3-6,34.6,9.1,31.1,27
		l-29.8,152.9C645.4,376.5,623.7,383.9,609.9,371.9z"/>
	
		<linearGradient id="XMLID_237_" gradientUnits="userSpaceOnUse" x1="58.3383" y1="671.1689" x2="118.4776" y2="567.0046" gradientTransform="matrix(0.6055 -0.7958 0.7958 0.6055 -380.8801 298.105)">
		<stop  offset="0" style="stop-color:#00FFC9"/>
		<stop  offset="0.1736" style="stop-color:#04FFC0"/>
		<stop  offset="0.4623" style="stop-color:#10FEA6"/>
		<stop  offset="0.8282" style="stop-color:#23FD7D"/>
		<stop  offset="0.9944" style="stop-color:#2DFC68"/>
	</linearGradient>
	<path id="XMLID_1_" class="st1" d="M168,657.6l-76.1-65.3c-8.9-7.7-6.2-22.2,4.9-26.1l94.6-33.3c11.1-3.9,22.3,5.7,20.1,17.3
		L193,648.8C190.8,660.4,176.9,665.2,168,657.6z"/>
	
		<linearGradient id="XMLID_238_" gradientUnits="userSpaceOnUse" x1="336.8521" y1="253.6789" x2="413.9173" y2="120.198" gradientTransform="matrix(0.9994 3.388500e-002 -3.388500e-002 0.9994 -67.1012 -63.6194)">
		<stop  offset="0" style="stop-color:#00FFC9"/>
		<stop  offset="0.1736" style="stop-color:#04FFC0"/>
		<stop  offset="0.4623" style="stop-color:#10FEA6"/>
		<stop  offset="0.8282" style="stop-color:#23FD7D"/>
		<stop  offset="0.9944" style="stop-color:#2DFC68"/>
	</linearGradient>
	<path id="XMLID_2_" class="st2" d="M246.3,179.4l11.9-128c1.4-15,18.5-22.9,30.9-14.2l104.9,74.3c12.3,8.7,10.6,27.5-3.1,33.8
		L274,199C260.3,205.4,244.9,194.4,246.3,179.4z"/>
</g>
<ellipse id="XMLID_206_" class="st3" cx="328.6" cy="579.8" rx="42.2" ry="10.7"/>
<ellipse id="XMLID_205_" class="st3" cx="331.8" cy="461.4" rx="42.2" ry="10.7"/>
<ellipse id="XMLID_204_" class="st3" cx="137.8" cy="466.4" rx="42.2" ry="10.7"/>
<rect id="XMLID_203_" x="109.8" y="145.1" class="st4" width="241.3" height="9.1"/>
<linearGradient id="XMLID_239_" gradientUnits="userSpaceOnUse" x1="230.1192" y1="353.2292" x2="230.1192" y2="659.4019" gradientTransform="matrix(1 0 0 -1 0 802)">
	<stop  offset="0" style="stop-color:#808080;stop-opacity:0.25"/>
	<stop  offset="0.54" style="stop-color:#808080;stop-opacity:0.12"/>
	<stop  offset="1" style="stop-color:#808080;stop-opacity:0.1"/>
</linearGradient>
<rect id="XMLID_202_" x="105.4" y="142.6" class="st5" width="249.5" height="306.2"/>
<rect id="XMLID_201_" x="109.8" y="154.3" class="st6" width="241.3" height="289.5"/>
<circle id="XMLID_200_" class="st7" cx="114.8" cy="149.8" r="2.2"/>
<circle id="XMLID_199_" class="st8" cx="120.8" cy="149.8" r="2.2"/>
<circle id="XMLID_198_" class="st9" cx="126.9" cy="149.8" r="2.2"/>
<g id="XMLID_196_">
	<rect id="XMLID_197_" x="116.7" y="165.3" class="st10" width="93.9" height="5.7"/>
</g>
<rect id="XMLID_195_" x="183.5" y="188.6" class="st4" width="93.9" height="5.7"/>
<rect id="XMLID_194_" x="116.7" y="371.3" class="st10" width="93.9" height="5.7"/>
<linearGradient id="XMLID_240_" gradientUnits="userSpaceOnUse" x1="238.9389" y1="424.4175" x2="238.9389" y2="431.3474" gradientTransform="matrix(1 0 0 -1 0 802)">
	<stop  offset="0" style="stop-color:#808080;stop-opacity:0.25"/>
	<stop  offset="0.54" style="stop-color:#808080;stop-opacity:0.12"/>
	<stop  offset="1" style="stop-color:#808080;stop-opacity:0.1"/>
</linearGradient>
<rect id="XMLID_193_" x="223.2" y="370.7" class="st11" width="31.5" height="6.9"/>
<linearGradient id="XMLID_241_" gradientUnits="userSpaceOnUse" x1="238.9389" y1="389.1384" x2="238.9389" y2="396.0682" gradientTransform="matrix(1 0 0 -1 0 802)">
	<stop  offset="0" style="stop-color:#808080;stop-opacity:0.25"/>
	<stop  offset="0.54" style="stop-color:#808080;stop-opacity:0.12"/>
	<stop  offset="1" style="stop-color:#808080;stop-opacity:0.1"/>
</linearGradient>
<rect id="XMLID_192_" x="223.2" y="405.9" class="st12" width="31.5" height="6.9"/>
<linearGradient id="XMLID_242_" gradientUnits="userSpaceOnUse" x1="303.1974" y1="389.1384" x2="303.1974" y2="396.0682" gradientTransform="matrix(1 0 0 -1 0 802)">
	<stop  offset="0" style="stop-color:#808080;stop-opacity:0.25"/>
	<stop  offset="0.54" style="stop-color:#808080;stop-opacity:0.12"/>
	<stop  offset="1" style="stop-color:#808080;stop-opacity:0.1"/>
</linearGradient>
<rect id="XMLID_191_" x="287.4" y="405.9" class="st13" width="31.5" height="6.9"/>
<rect id="XMLID_190_" x="224.4" y="371.3" class="st14" width="29.6" height="5.7"/>
<rect id="XMLID_189_" x="224.4" y="406.6" class="st14" width="29.6" height="5.7"/>
<rect id="XMLID_188_" x="288.1" y="406.6" class="st14" width="29.6" height="5.7"/>
<rect id="XMLID_187_" x="116.7" y="388.9" class="st4" width="93.9" height="5.7"/>
<rect id="XMLID_186_" x="224.4" y="388.9" class="st10" width="93.9" height="5.7"/>
<rect id="XMLID_185_" x="224.4" y="424.2" class="st4" width="93.9" height="5.7"/>
<rect id="XMLID_184_" x="116.7" y="406.6" class="st10" width="93.9" height="5.7"/>
<rect id="XMLID_183_" x="116.7" y="424.2" class="st4" width="93.9" height="5.7"/>
<rect id="XMLID_182_" x="183.5" y="198" class="st4" width="52.9" height="5.7"/>
<rect id="XMLID_181_" x="245.9" y="198" class="st4" width="18.3" height="5.7"/>
<rect id="XMLID_180_" x="183.5" y="216.9" class="st4" width="52.9" height="5.7"/>
<rect id="XMLID_179_" x="245.9" y="216.9" class="st4" width="18.3" height="5.7"/>
<rect id="XMLID_178_" x="183.5" y="207.5" class="st4" width="93.9" height="5.7"/>
<g id="XMLID_176_">
	<rect id="XMLID_177_" x="249" y="165.3" class="st10" width="93.9" height="5.7"/>
</g>
<linearGradient id="XMLID_243_" gradientUnits="userSpaceOnUse" x1="307.6073" y1="607.1132" x2="307.6073" y2="614.043" gradientTransform="matrix(1 0 0 -1 0 802)">
	<stop  offset="0" style="stop-color:#808080;stop-opacity:0.25"/>
	<stop  offset="0.54" style="stop-color:#808080;stop-opacity:0.12"/>
	<stop  offset="1" style="stop-color:#808080;stop-opacity:0.1"/>
</linearGradient>
<rect id="XMLID_175_" x="301.9" y="188" class="st15" width="11.3" height="6.9"/>
<linearGradient id="XMLID_244_" gradientUnits="userSpaceOnUse" x1="307.6073" y1="597.6634" x2="307.6073" y2="604.5933" gradientTransform="matrix(1 0 0 -1 0 802)">
	<stop  offset="0" style="stop-color:#808080;stop-opacity:0.25"/>
	<stop  offset="0.54" style="stop-color:#808080;stop-opacity:0.12"/>
	<stop  offset="1" style="stop-color:#808080;stop-opacity:0.1"/>
</linearGradient>
<rect id="XMLID_174_" x="301.9" y="197.4" class="st16" width="11.3" height="6.9"/>
<linearGradient id="XMLID_245_" gradientUnits="userSpaceOnUse" x1="307.6073" y1="588.2136" x2="307.6073" y2="595.1434" gradientTransform="matrix(1 0 0 -1 0 802)">
	<stop  offset="0" style="stop-color:#808080;stop-opacity:0.25"/>
	<stop  offset="0.54" style="stop-color:#808080;stop-opacity:0.12"/>
	<stop  offset="1" style="stop-color:#808080;stop-opacity:0.1"/>
</linearGradient>
<rect id="XMLID_173_" x="301.9" y="206.9" class="st17" width="11.3" height="6.9"/>
<rect id="XMLID_172_" x="302.6" y="188.6" class="st7" width="10.1" height="5.7"/>
<rect id="XMLID_171_" x="302.6" y="198" class="st18" width="10.1" height="5.7"/>
<rect id="XMLID_170_" x="302.6" y="207.5" class="st19" width="10.1" height="5.7"/>
<linearGradient id="XMLID_246_" gradientUnits="userSpaceOnUse" x1="307.6073" y1="578.7639" x2="307.6073" y2="585.6937" gradientTransform="matrix(1 0 0 -1 0 802)">
	<stop  offset="0" style="stop-color:#808080;stop-opacity:0.25"/>
	<stop  offset="0.54" style="stop-color:#808080;stop-opacity:0.12"/>
	<stop  offset="1" style="stop-color:#808080;stop-opacity:0.1"/>
</linearGradient>
<rect id="XMLID_169_" x="301.9" y="216.3" class="st20" width="11.3" height="6.9"/>
<rect id="XMLID_168_" x="302.6" y="216.9" class="st21" width="10.1" height="5.7"/>
<linearGradient id="XMLID_247_" gradientUnits="userSpaceOnUse" x1="230.4341" y1="450.2469" x2="230.4341" y2="544.7447" gradientTransform="matrix(1 0 0 -1 0 802)">
	<stop  offset="0" style="stop-color:#808080;stop-opacity:0.25"/>
	<stop  offset="0.54" style="stop-color:#808080;stop-opacity:0.12"/>
	<stop  offset="1" style="stop-color:#808080;stop-opacity:0.1"/>
</linearGradient>
<rect id="XMLID_167_" x="114.8" y="257.3" class="st22" width="231.2" height="94.5"/>
<rect id="XMLID_166_" x="116.7" y="259.1" class="st10" width="226.2" height="89.5"/>
<polygon id="XMLID_165_" class="st23" points="123.3,266.1 342.5,266.1 342.5,259.1 116.4,259.1 116.4,349 123.3,349 "/>
<linearGradient id="XMLID_248_" gradientUnits="userSpaceOnUse" x1="390.3232" y1="296.8223" x2="390.3232" y2="392.58" gradientTransform="matrix(0.9959 -9.063258e-002 -9.063258e-002 -0.9959 -121.0665 688.2218)">
	<stop  offset="0" style="stop-color:#808080;stop-opacity:0.25"/>
	<stop  offset="0.54" style="stop-color:#808080;stop-opacity:0.12"/>
	<stop  offset="1" style="stop-color:#808080;stop-opacity:0.1"/>
</linearGradient>
<polygon id="XMLID_164_" class="st24" points="116,272.4 348.1,251.3 356.8,346.7 124.7,367.8 "/>
<rect id="XMLID_163_" x="123.6" y="264.2" transform="matrix(-0.9959 9.063258e-002 -9.063258e-002 -0.9959 500.3488 595.0794)" class="st6" width="226.2" height="89.5"/>
<path id="XMLID_162_" class="st14" d="M136.8,347.7l-3.9-49.6c0,0,20.2-21.4,60.9-5.5s59.9,4.7,66.5-6.1
	c6.6-10.7,40.9-22.7,52.1-4.7c11.1,17.9,24.5-2.2,24.5-2.2l4.5,49.6L136.8,347.7z"/>
<line id="XMLID_161_" class="st25" x1="157.3" y1="287.3" x2="157.6" y2="291"/>
<line id="XMLID_160_" class="st26" x1="158.3" y1="298.3" x2="161.9" y2="338"/>
<line id="XMLID_159_" class="st25" x1="162.2" y1="341.6" x2="162.6" y2="345.4"/>
<line id="XMLID_158_" class="st25" x1="196" y1="293.4" x2="196.4" y2="297.2"/>
<line id="XMLID_157_" class="st27" x1="197.1" y1="305.4" x2="199.7" y2="334.1"/>
<line id="XMLID_156_" class="st25" x1="200.1" y1="338.2" x2="200.5" y2="341.9"/>
<line id="XMLID_155_" class="st25" x1="235.6" y1="300.2" x2="235.9" y2="303.9"/>
<line id="XMLID_154_" class="st28" x1="236.6" y1="310.1" x2="238.7" y2="331.5"/>
<line id="XMLID_153_" class="st25" x1="239" y1="334.6" x2="239.4" y2="338.4"/>
<line id="XMLID_152_" class="st25" x1="271.1" y1="277.9" x2="271.4" y2="281.7"/>
<line id="XMLID_151_" class="st29" x1="272.1" y1="288.8" x2="275.6" y2="327.7"/>
<line id="XMLID_150_" class="st25" x1="275.9" y1="331.2" x2="276.3" y2="335"/>
<line id="XMLID_149_" class="st25" x1="296.7" y1="272.7" x2="297.1" y2="276.5"/>
<line id="XMLID_148_" class="st30" x1="297.7" y1="284" x2="301.5" y2="325.1"/>
<line id="XMLID_147_" class="st25" x1="301.8" y1="328.9" x2="302.2" y2="332.7"/>
<circle id="XMLID_146_" class="st18" cx="157.2" cy="287" r="3.1"/>
<circle id="XMLID_145_" class="st7" cx="195.7" cy="293.7" r="3.1"/>
<circle id="XMLID_144_" class="st19" cx="235.6" cy="300.1" r="3.1"/>
<linearGradient id="XMLID_249_" gradientUnits="userSpaceOnUse" x1="427.5024" y1="368.6479" x2="427.5024" y2="377.4677" gradientTransform="matrix(0.9959 -9.063258e-002 -9.063258e-002 -0.9959 -121.0764 688.2255)">
	<stop  offset="0" style="stop-color:#808080;stop-opacity:0.25"/>
	<stop  offset="0.54" style="stop-color:#808080;stop-opacity:0.12"/>
	<stop  offset="1" style="stop-color:#808080;stop-opacity:0.1"/>
</linearGradient>
<circle id="XMLID_143_" class="st31" cx="270.9" cy="278" r="4.4"/>
<linearGradient id="XMLID_250_" gradientUnits="userSpaceOnUse" x1="453.9524" y1="371.1595" x2="453.9524" y2="379.9792" gradientTransform="matrix(0.9959 -9.063258e-002 -9.063258e-002 -0.9959 -121.0686 688.2192)">
	<stop  offset="0" style="stop-color:#808080;stop-opacity:0.25"/>
	<stop  offset="0.54" style="stop-color:#808080;stop-opacity:0.12"/>
	<stop  offset="1" style="stop-color:#808080;stop-opacity:0.1"/>
</linearGradient>
<circle id="XMLID_142_" class="st32" cx="297" cy="273.1" r="4.4"/>
<circle id="XMLID_141_" class="st21" cx="270.9" cy="278" r="3.1"/>
<circle id="XMLID_140_" class="st21" cx="297" cy="273.1" r="3.1"/>
<circle id="XMLID_139_" class="st19" cx="336.9" cy="280.8" r="3.1"/>
<g id="XMLID_137_" class="st33">
	
		<linearGradient id="XMLID_251_" gradientUnits="userSpaceOnUse" x1="497.9141" y1="363.9945" x2="497.9141" y2="364.1583" gradientTransform="matrix(1 0 0 -1 -154.5 707.52)">
		<stop  offset="0" style="stop-color:#808080;stop-opacity:0.25"/>
		<stop  offset="0.54" style="stop-color:#808080;stop-opacity:0.12"/>
		<stop  offset="1" style="stop-color:#808080;stop-opacity:0.1"/>
	</linearGradient>
	<path id="XMLID_138_" class="st34" d="M343.3,343.4l0,0.1C343.8,343.3,343.3,343.4,343.3,343.4z"/>
</g>
<g id="XMLID_133_" class="st33">
	
		<linearGradient id="XMLID_252_" gradientUnits="userSpaceOnUse" x1="478.7914" y1="258.2578" x2="478.7914" y2="367.1053" gradientTransform="matrix(1 0 0 -1 -154.5 707.52)">
		<stop  offset="0" style="stop-color:#808080;stop-opacity:0.25"/>
		<stop  offset="0.54" style="stop-color:#808080;stop-opacity:0.12"/>
		<stop  offset="1" style="stop-color:#808080;stop-opacity:0.1"/>
	</linearGradient>
	<path id="XMLID_134_" class="st35" d="M338.1,449.2l10.3-1.7l-1.4-6.3l0,0v-0.1h0l-7.3-33.4v-24.3c0-0.3,0-0.6-0.1-0.9
		c10.9-14.4,4.4-37,3.8-39c-0.1,0.1-0.3,0.1-0.5,0.2c-0.1-0.9-0.2-1.8-0.5-2.6c0,0-3.1-2-4.9,0.6c-1.5,2.2-0.4,3.6-0.1,3.9l-0.2,0.1
		c0.5,0.8,0.8,1.6,1,2.5c-0.1-0.2-0.2-0.4-0.3-0.6c-0.4-0.1-0.6-0.1-0.6-0.1l-0.1-0.1l-0.2,0.1c1.1,1.6,1.5,4.4,1.4,7.7
		c-0.4-0.5-0.8-1-1.3-1.5c-2-1.9-4.6-3-7.4-3.1h-0.5c-0.3,0-0.6,0-0.9,0.1h-0.2l-0.4,0.1l-0.4,0.1l-0.3,0.1l-0.5,0.1l-0.2,0.1
		c-0.2,0.1-0.4,0.1-0.6,0.2c-0.7,0.3-1.4,0.6-2.2,0.8c-0.1,0-0.2,0-0.3,0l0,0c-0.8,0.1-1.7-0.2-2.4-0.7l-0.2-0.2
		c-0.1-0.1-0.2-0.2-0.2-0.2c-0.1,0.2-0.1,0.5-0.1,0.7c0,0.6,0.3,1.1,0.7,1.4c0.1,0.1,0.3,0.2,0.4,0.3c0.2,0.1,0.4,0.2,0.7,0.2h0.2
		h-0.1c-0.1,0.1-0.3,0.1-0.4,0.2h0c-0.2,0.1-0.3,0.1-0.5,0.2l0,0c-0.8,0.2-1.7,0.2-2.5,0l0,0l-0.3-0.1c-0.1,0-0.3-0.1-0.4-0.1
		c0,0.1,0.1,0.2,0.1,0.3l0.1,0.1l0.1,0.2l0.1,0.1l0.1,0.2l0.1,0.1l0.2,0.2l0.1,0.1l0.2,0.2l0.1,0.1l0.2,0.1l0.1,0.1l0.2,0.1l0.1,0.1
		l0.2,0.1l0.1,0.1l0.2,0.1l0.2,0.1l0.2,0h0.2h0.1h0.2h0.6c0.3,0,0.6-0.1,0.9-0.2l-0.6,0.2l0,0l-0.3,0.1l-0.3,0.1l-0.3,0.1l-0.3,0.1
		l-0.3,0.1l-0.3,0.1l-0.3,0.1l-0.3,0.1l-0.3,0l-0.4,0h-0.3h-0.4h-0.2h-0.6c0.3,0.1,0.7,0.3,1,0.5c0.2,0.1,0.4,0.2,0.6,0.3
		c0.1,0,0.2,0,0.3,0.1h0.1h0.2h0.9h0.3c0.6,0.1,1.1,0.2,1.6,0.5c0.3,0.2,0.5,0.4,0.7,0.6c-0.1,0.1-0.2,0.3-0.3,0.4
		c-0.1,0.2-0.1,0.3-0.2,0.4c-0.1,0.3-0.2,0.5-0.3,0.8c-0.4,1-0.5,2-0.5,3.1c0,0.2,0,0.4,0,0.6c0,0.1,0,0.1,0,0.2
		c0,0.2,0,0.3,0.1,0.5v0.1c0,0.2,0.1,0.4,0.1,0.5v0.1c0,0.2,0.1,0.3,0.1,0.4l0,0.1c0.1,0.4,0.2,0.7,0.4,1l0,0.1
		c0.1,0.2,0.1,0.3,0.2,0.5v0c0.1,0.2,0.2,0.3,0.3,0.5v0c0.1,0.2,0.2,0.3,0.3,0.4l0,0.1c0.2,0.3,0.5,0.6,0.7,0.9l0,0
		c0.7,0.7,1.5,1.3,2.4,1.8c0,0.1-0.1,0.3-0.1,0.4l0,0c0,0.1,0,0.3,0,0.4v3.3c-0.2,0.1-0.4,0.2-0.6,0.3c-7.9-3.6-19.6-29-19.6-29
		h-0.3c1.1-0.9,0-4.6,0-4.6c-0.7-0.4-1.4-0.7-2.2-0.7h-0.6H303h-0.1h-0.1h-0.1l-0.1,0h-0.1l-0.2,0.1l0,0l-0.2,0.1l-0.1,0l-0.1,0.1
		l-0.1,0.4l-0.1,0.1l-0.1,0.1l-0.1,0.1l-0.1,0.1l-0.1,0.1l-0.1,0.1l-0.1,0.1l-0.1,0.1l-0.2,0.2c-1.7,2.6,0,4,0,4c-0.1,1-0.2,2-0.2,3
		c-0.1,18.6,19.7,32.9,20.8,33.7c-0.4,1.2-4.1,11.4,0,24.2c0,0,0,0.1,0.1,0.1c-9.7,8.9-13.9,22.3-11.2,35.2l0.1,0.4h0.2
		c0,0.1,0,0.2-0.1,0.3c0,0.2-0.1,0.3-0.2,0.4c-0.1,0.2-0.3,0.5-0.5,0.7l0,0c-0.2,0.2-0.4,0.5-0.7,0.7l-0.3,0.2c-1,1-2,1.9-1.3,2.3
		h10.8v-4.7h0.2c0,0-0.1-0.1-0.2-0.4v-0.1h0c-0.6-1.5-1.9-6,0.2-13c2.6-8.6,12.6-12.9,12.6-12.9l0.2,0.6h0l7.9,25.8
		c0,0.1,0,0.2,0,0.3c0,0.2-0.1,0.5-0.2,0.7c-0.1,0.2-0.1,0.4-0.2,0.5c-0.5,1-1.3,2.2-1.7,3.1c-0.1,0.1-0.1,0.2-0.1,0.4
		c0,0.1-0.1,0.3,0,0.4c0,0.2,0.2,0.4,0.3,0.4l0,0h0.1L338.1,449.2L338.1,449.2z M335,375.7c-0.2-0.1-0.4-0.2-0.6-0.3v-3.1
		c0-0.2,0-0.5-0.1-0.7c0.7-0.3,1.3-0.7,1.9-1.2C335.8,372.2,335.4,374.1,335,375.7L335,375.7z"/>
</g>
<path id="XMLID_132_" class="st36" d="M300.8,349.6c0,0-1.9-1.6,0-4.4s5.4-0.6,5.4-0.6s1.3,4.1,0,5.1
	C305,350.6,300.8,349.6,300.8,349.6z"/>
<linearGradient id="cbb1ca8a-3a06-4d8d-9881-c3637d2b9b50_1_" gradientUnits="userSpaceOnUse" x1="308.1733" y1="458.7781" x2="320.4716" y2="458.7781">
	<stop  offset="0" style="stop-color:#00FFC9"/>
	<stop  offset="0.1736" style="stop-color:#04FFC0"/>
	<stop  offset="0.4623" style="stop-color:#10FEA6"/>
	<stop  offset="0.8282" style="stop-color:#23FD7D"/>
	<stop  offset="0.9944" style="stop-color:#2DFC68"/>
</linearGradient>
<path id="cbb1ca8a-3a06-4d8d-9881-c3637d2b9b50" class="st37" d="M320.5,455.9h-8.8c0.1,0.8-0.2,1.7-0.8,2.2c-1.2,1.4-3.5,3-2.4,3.6
	h12V455.9z"/>
<path id="XMLID_131_" class="st38" d="M311.5,458.1c0.6-0.6,0.9-1.4,0.8-2.2h-0.6c0.1,0.8-0.2,1.7-0.8,2.2c-1.2,1.4-3.5,3-2.4,3.6
	h0.6C308,461.1,310.4,459.5,311.5,458.1z"/>
<linearGradient id="ec846da8-b8c9-4838-98ee-b96510078eab_1_" gradientUnits="userSpaceOnUse" x1="340.9974" y1="458.5544" x2="353.2308" y2="458.5544">
	<stop  offset="0" style="stop-color:#00FFC9"/>
	<stop  offset="0.1736" style="stop-color:#04FFC0"/>
	<stop  offset="0.4623" style="stop-color:#10FEA6"/>
	<stop  offset="0.8282" style="stop-color:#23FD7D"/>
	<stop  offset="0.9944" style="stop-color:#2DFC68"/>
</linearGradient>
<path id="ec846da8-b8c9-4838-98ee-b96510078eab" class="st39" d="M351.6,454.1l-8.2,1.3c0.2,1,0.1,2-0.4,2.9
	c-0.9,1.9-2.9,4.2-1.7,4.8l11.9-1.9L351.6,454.1z"/>
<linearGradient id="XMLID_253_" gradientUnits="userSpaceOnUse" x1="336.7567" y1="368.6886" x2="350.4077" y2="368.6886">
	<stop  offset="0" style="stop-color:#00FFC9"/>
	<stop  offset="0.1736" style="stop-color:#04FFC0"/>
	<stop  offset="0.4623" style="stop-color:#10FEA6"/>
	<stop  offset="0.8282" style="stop-color:#23FD7D"/>
	<stop  offset="0.9944" style="stop-color:#2DFC68"/>
</linearGradient>
<path id="XMLID_130_" class="st40" d="M347.6,345.7c0,0,9.4,29.6-6.3,45.9l-4.5-3.5c0,0,9.3-32.3,4.1-39.8
	C350,345.3,347.6,345.7,347.6,345.7z"/>
<path id="XMLID_129_" class="st36" d="M341.2,348.4c0,0-1.9-1.6,0-4.4c1.9-2.9,5.4-0.6,5.4-0.6s1.3,4.1,0,5.1
	C345.3,349.3,341.2,348.4,341.2,348.4z"/>
<path id="XMLID_128_" class="st38" d="M343.7,458.3c0.5-0.9,0.6-1.9,0.4-2.9l7.6-1.3V454l-8.2,1.4c0.2,1,0.1,2-0.4,2.9
	c-0.9,1.9-2.9,4.2-1.7,4.8l0.5-0.1C341,462.3,342.8,460.1,343.7,458.3z"/>
<path id="XMLID_127_" class="st36" d="M333.4,373.3L333.4,373.3c2.5,0,4.4,2,4.4,4.4v4.3c0,2.5-2,4.4-4.4,4.4l0,0
	c-2.5,0-4.4-2-4.4-4.4v-4.3C328.9,375.3,330.9,373.3,333.4,373.3z"/>
<path id="XMLID_126_" class="st38" d="M337.4,390.1c0,0,9.2-31.9,4.2-39.7c-0.4-0.1-0.7-0.1-0.7-0.1l-0.1-0.1l-0.2,0.1
	c5.2,7.6-4.1,39.8-4.1,39.8l4.5,3.5l0.4-0.4L337.4,390.1z"/>
<circle id="XMLID_125_" class="st36" cx="333.5" cy="368" r="9.8"/>
<path id="XMLID_124_" class="st38" d="M330,382v-4.3c0-0.3,0-0.6,0.1-0.9c-4.8-2.5-6.7-8.4-4.3-13.2c1.6-3.1,4.7-5.1,8.2-5.3h-0.6
	c-5.4,0-9.8,4.4-9.8,9.8c0,3.7,2.1,7.1,5.3,8.8c-0.1,0.3-0.1,0.6-0.1,0.9v4.3c0,2.4,1.9,4.4,4.4,4.4c0.2,0,0.4,0,0.6,0
	C331.7,386.1,330,384.2,330,382z"/>
<linearGradient id="XMLID_254_" gradientUnits="userSpaceOnUse" x1="321.6742" y1="399.1472" x2="343.5416" y2="399.1472">
	<stop  offset="0" style="stop-color:#00FFC9"/>
	<stop  offset="0.1736" style="stop-color:#04FFC0"/>
	<stop  offset="0.4623" style="stop-color:#10FEA6"/>
	<stop  offset="0.8282" style="stop-color:#23FD7D"/>
	<stop  offset="0.9944" style="stop-color:#2DFC68"/>
</linearGradient>
<path id="XMLID_123_" class="st41" d="M343.5,417.1c0,0-19,2.1-19.7,0c-4.9-15.1,0-27,0-27c0-5.4,4.4-9.8,9.8-9.8l0,0
	c5.4,0,9.8,4.4,9.8,9.8V417.1z"/>
<path id="XMLID_122_" class="st42" d="M343.5,417.1l8.6,39.4h-8.6l-8.9-29.2c0,0-11.1,4.8-14,14.3c-2.9,9.5,0,14.9,0,14.9h-9.2
	l-0.1-0.4c-3.1-14.3,1.7-29.1,12.5-38.9l0,0"/>
<path id="XMLID_121_" class="st38" d="M325,417.1c-4.9-15.1,0-27,0-27c0-5.2,4-9.5,9.2-9.8c-0.2,0-0.4,0-0.6,0l0,0
	c-5.4,0-9.8,4.4-9.8,9.8c0,0-4.9,11.9,0,27c0.3,0.8,2.8,1,6.1,1C327.2,418,325.2,417.7,325,417.1z"/>
<linearGradient id="XMLID_255_" gradientUnits="userSpaceOnUse" x1="300.6691" y1="369.7769" x2="331.8261" y2="369.7769">
	<stop  offset="0" style="stop-color:#00FFC9"/>
	<stop  offset="0.1736" style="stop-color:#04FFC0"/>
	<stop  offset="0.4623" style="stop-color:#10FEA6"/>
	<stop  offset="0.8282" style="stop-color:#23FD7D"/>
	<stop  offset="0.9944" style="stop-color:#2DFC68"/>
</linearGradient>
<path id="XMLID_120_" class="st43" d="M323.7,389.9c0,0-25.4-17.8-22.9-40.3h5.7c0,0,13.6,29.6,22.4,32.4S323.7,389.9,323.7,389.9z"
	/>
<g id="XMLID_117_" class="st33">
	<path id="XMLID_119_" class="st6" d="M334.8,427.9l8.7,28.7h1.3l-8.9-29.2C335.9,427.4,335.5,427.6,334.8,427.9z"/>
	<path id="XMLID_118_" class="st6" d="M325.1,417.2h-1.3c-10.8,9.8-15.6,24.7-12.5,38.9l0.1,0.4h1.3l-0.1-0.4
		C309.6,441.9,314.3,427.1,325.1,417.2z"/>
</g>
<path id="XMLID_116_" class="st38" d="M301.8,349.9h-1c-2.5,22.5,22.9,40.3,22.9,40.3l0.6-0.2C321.4,387.8,299.4,371,301.8,349.9z"
	/>
<path id="XMLID_115_" class="st42" d="M325.7,363.6c0.5,1.3,0.9,2.6,1.1,4c0.6,2.8,2.1,5.5,4.5,6.9c1.4,0.7,2.9,1.1,4.4,1.2
	c2.3,0.1,4.9-0.3,6.5-2c1-1.1,1.7-2.5,2-4c1-4.5-0.3-9.2-3.6-12.5c-3.3-3.2-8.2-4.3-12.6-2.6c-0.8,0.4-1.6,0.7-2.4,0.9
	c-1.3,0.2-2.6-0.2-3.5-1.2c-0.4,1.2,0.3,2.4,1.5,2.7c0.2,0.1,0.4,0.1,0.7,0.1c-1.5,0.7-3.2,0.8-4.7,0.3c0.9,1.9,3.1,2.8,5,2
	c-1.8,0.8-3.7,1.2-5.7,1.2c0.4,0,1.2,0.8,1.7,0.9c0.6,0.1,1.3,0.1,1.9,0.1C323.9,361.7,325.1,362.5,325.7,363.6z"/>
<g id="XMLID_109_" class="st33">
	<path id="XMLID_114_" class="st6" d="M324.4,357.1c-0.7,0.4-1.5,0.6-2.3,0.6c1,0.1,2-0.2,3-0.6c-1.2,0-2.2-1-2.2-2.2
		c0-0.1,0-0.1,0-0.2c-0.2-0.1-0.4-0.3-0.5-0.4c-0.4,1.2,0.3,2.4,1.5,2.7C323.9,357.1,324.2,357.1,324.4,357.1z"/>
	<path id="XMLID_113_" class="st6" d="M326.4,355.5c0.8-0.2,1.6-0.5,2.4-0.9c1.2-0.5,2.5-0.7,3.8-0.8c-1.5,0-3,0.2-4.4,0.8
		c-0.8,0.4-1.6,0.7-2.4,0.9c-0.1,0-0.2,0-0.3,0C325.7,355.5,326.1,355.5,326.4,355.5z"/>
	<path id="XMLID_112_" class="st6" d="M321.3,361.5c-0.5-0.1-1.3-0.9-1.7-0.9c2,0,3.9-0.4,5.7-1.2c-0.4,0.2-0.8,0.3-1.3,0.3
		c-1.6,0.6-3.3,0.9-5,0.9c0.4,0,1.2,0.8,1.7,0.9c0.4,0.1,0.9,0.1,1.3,0.1C321.8,361.6,321.6,361.5,321.3,361.5z"/>
	<path id="XMLID_111_" class="st6" d="M336.4,375.7c-1.5-0.1-3.1-0.5-4.4-1.2c-2.5-1.4-3.8-4.2-4.5-6.9c-0.2-1.4-0.6-2.7-1.1-4
		c-0.6-1.2-1.8-2-3.1-2c-0.3,0-0.6,0-0.9,0h0.3c1.3,0.1,2.5,0.8,3.1,2c0.5,1.3,0.9,2.6,1.1,4c0.6,2.8,2.1,5.5,4.5,6.9
		c1.4,0.7,2.9,1.1,4.4,1.2c0.4,0,0.7,0,1.1,0H336.4z"/>
	<path id="XMLID_110_" class="st6" d="M323.6,359.6c-1.4-0.1-2.6-0.9-3.2-2.1c-0.2-0.1-0.5-0.1-0.7-0.2
		C320.4,358.9,322,359.8,323.6,359.6z"/>
</g>
<path id="XMLID_108_" class="st38" d="M301.5,349.6c0,0-1.9-1.6,0-4.4c0.5-0.8,1.4-1.4,2.4-1.4c-1.2-0.1-2.4,0.4-3,1.4
	c-1.9,2.9,0,4.4,0,4.4c1.2,0.3,2.5,0.4,3.7,0.4C303.5,350,302.5,349.8,301.5,349.6z"/>
<g id="XMLID_106_" class="st33">
	
		<linearGradient id="XMLID_256_" gradientUnits="userSpaceOnUse" x1="273.2321" y1="357.7514" x2="273.2321" y2="357.9467" gradientTransform="matrix(1 0 0 -1 -154.5 707.52)">
		<stop  offset="0" style="stop-color:#808080;stop-opacity:0.25"/>
		<stop  offset="0.54" style="stop-color:#808080;stop-opacity:0.12"/>
		<stop  offset="1" style="stop-color:#808080;stop-opacity:0.1"/>
	</linearGradient>
	<path id="XMLID_107_" class="st44" d="M118.8,349.8l0.1-0.2C118.9,349.6,118.2,349.5,118.8,349.8z"/>
</g>
<g id="XMLID_104_" class="st33">
	
		<linearGradient id="XMLID_257_" gradientUnits="userSpaceOnUse" x1="296.4803" y1="233.9594" x2="296.4803" y2="361.5075" gradientTransform="matrix(1 0 0 -1 -154.5 707.52)">
		<stop  offset="0" style="stop-color:#808080;stop-opacity:0.25"/>
		<stop  offset="0.54" style="stop-color:#808080;stop-opacity:0.12"/>
		<stop  offset="1" style="stop-color:#808080;stop-opacity:0.1"/>
	</linearGradient>
	<path id="XMLID_105_" class="st45" d="M178.2,360.3c-0.1-0.2-0.1-0.4-0.2-0.6c0-0.1-0.1-0.1-0.1-0.2c-0.1-0.1-0.1-0.2-0.2-0.3
		l-0.1-0.2c-0.1-0.1-0.1-0.2-0.2-0.2l-0.1-0.1c-0.1-0.1-0.2-0.1-0.2-0.2l-0.2-0.1l-0.3-0.2l-0.2-0.1l-0.3-0.1L176,358
		c-0.1,0-0.3-0.1-0.4-0.1l0,0c-0.9-0.2-1.9-0.1-2.8,0.1c0,0-2.6,3.9-1.6,5.3l-0.3-0.1c0,0-19.6,21.9-30.7,25.9
		c-0.3-0.2-0.6-0.4-0.9-0.5v-4.1c0-0.2,0-0.3,0-0.5l0,0c0-0.2,0-0.3-0.1-0.5l0.1,0l0.3-0.2l0.5-0.3l0.3-0.2c0.2-0.2,0.4-0.3,0.6-0.5
		l0.2-0.2c0.2-0.1,0.3-0.3,0.4-0.4l0.3-0.2c0.2-0.2,0.3-0.4,0.5-0.6l0.2-0.2c0.2-0.2,0.3-0.4,0.4-0.6l0.2-0.3
		c0.1-0.2,0.2-0.4,0.4-0.6l0.1-0.2c0.1-0.3,0.3-0.5,0.4-0.8l0.1-0.2c0.1-0.2,0.2-0.4,0.2-0.7c0-0.1,0.1-0.2,0.1-0.2
		c0.1-0.3,0.2-0.6,0.2-0.9c0-0.1,0-0.1,0-0.2c0.1-0.3,0.1-0.5,0.1-0.8c0-0.1,0-0.2,0-0.3c0-0.3,0.1-0.6,0.1-1c0-2.5-0.8-4.8-2.4-6.7
		c0.8-1.3,1.4-2.1,1.4-2.1c-0.5-0.3-1-0.7-1.5-1l-0.5-0.3c-0.3-0.2-0.6-0.4-1-0.6l-0.5-0.3c-0.3-0.2-0.6-0.3-0.9-0.4l-0.6-0.3
		l-0.8-0.4l-0.5-0.2c-0.3-0.1-0.6-0.2-0.8-0.3l-0.5-0.2c-0.3-0.1-0.6-0.2-0.8-0.2l-0.5-0.1c-0.3-0.1-0.6-0.1-0.9-0.2l-0.3-0.1
		c-0.4-0.1-0.8-0.1-1.3-0.2l0,0c-2.6-0.3-5.2,0.1-7.6,1.2c0.1-3,0.6-5.5,1.7-7l-0.3-0.1l-0.1,0.1c0,0-0.3,0.1-0.8,0.2
		c-0.2,0.2-0.3,0.5-0.4,0.8c0.2-1.1,0.6-2.1,1.2-3l-0.3-0.1c0.4-0.4,1.7-2-0.1-4.8c-2.1-3.1-5.9-0.7-5.9-0.7c-0.3,1-0.5,2.1-0.6,3.1
		c-0.3-0.1-0.5-0.2-0.6-0.3c-1.8,6.4-2.8,13.1-3,19.8c-6.9,9.7-9.7,24.1-10.2,27.2l0,0l0,0.2l0,0c0,0.2-0.1,0.3-0.1,0.3l17.8,0.4
		c0,0.1,0,0.1,0,0.2v28.2l-13,27.5c0,0,4.9,0.2,12.4,1.1l-2.1,14.7l0,0l-0.7,4.1h12.4c1.4-2.7-5.5-4.1-5.5-4.1h-0.2l2.7-13.7
		c1.2,0.2,2.4,0.4,3.7,0.6c1.8,0.4,3.7,0.6,5.6,0.6l0,0c1.5,0.1,3.1,0,4.6-0.2c0.9,7.4-0.3,11.9-0.5,12.6h-0.1l-0.7,4.1h12.4
		c1.2-2.4-3.9-3.7-5.2-4.1l0.1-0.4c0.6-4.6,0.8-9.3,0.5-14c1.6-0.6,3.1-1.5,4.4-2.6l0,0l0.2-0.2l0,0l0.1-0.1l-9.2-25.8
		c1.7-7.3-4.3-15-1.1-18.8c3.2-3.8,1.3-8.7,0.9-9.6c8.6-3.8,26.1-13.2,31-29.6c0.4-1.2,0.7-2.3,0.9-3.5
		C176.8,364.9,179.3,363.9,178.2,360.3z"/>
</g>
<path id="XMLID_103_" class="st7" d="M120.8,354.6c0,0-9.4,29.6,6.3,45.9l4.5-3.5c0,0-9.3-32.3-4.1-39.8
	C118.4,354.1,120.8,354.6,120.8,354.6z"/>
<path id="XMLID_102_" class="st46" d="M127.3,357.2c0,0,1.9-1.6,0-4.4c-1.9-2.9-5.4-0.6-5.4-0.6s-1.3,4.1,0,5.1
	C123.1,358.1,127.3,357.2,127.3,357.2z"/>
<path id="XMLID_101_" class="st46" d="M135,395.3L135,395.3c-2.5,0-4.4-2-4.4-4.4v-4.3c0-2.5,2-4.4,4.4-4.4l0,0c2.5,0,4.4,2,4.4,4.4
	v4.3C139.5,393.3,137.5,395.3,135,395.3z"/>
<path id="XMLID_100_" class="st38" d="M131,398.9c0,0-9.2-31.9-4.2-39.7c0.4-0.1,0.7-0.1,0.7-0.1l0.1-0.1l0.2,0.1
	c-5.2,7.6,4.1,39.8,4.1,39.8l-4.5,3.5l-0.4-0.4L131,398.9z"/>
<circle id="XMLID_99_" class="st46" cx="134.9" cy="376.9" r="9.8"/>
<path id="XMLID_98_" class="st38" d="M138.4,390.8v-4.3c0-0.3,0-0.6-0.1-0.9c4.8-2.5,6.7-8.4,4.3-13.2c-1.6-3.1-4.7-5.1-8.2-5.3h0.6
	c5.4,0,9.8,4.4,9.8,9.8c0,3.7-2.1,7.1-5.3,8.8c0.1,0.3,0.1,0.6,0.1,0.9v4.3c0,2.4-1.9,4.4-4.4,4.4c-0.2,0-0.4,0-0.6,0
	C136.7,395,138.4,393.1,138.4,390.8z"/>
<linearGradient id="XMLID_258_" gradientUnits="userSpaceOnUse" x1="124.8865" y1="407.967" x2="145.4382" y2="407.967">
	<stop  offset="0" style="stop-color:#FF7D8D"/>
	<stop  offset="0.2518" style="stop-color:#FF7684"/>
	<stop  offset="0.6689" style="stop-color:#FF646A"/>
	<stop  offset="0.9944" style="stop-color:#FF5252"/>
</linearGradient>
<path id="XMLID_97_" class="st47" d="M124.9,425.9c0,0,19,2.1,19.7,0c2.3-6.9-3.8-14.4-0.8-18.1c3.1-3.8,0.8-8.9,0.8-8.9
	c0-5.4-4.4-9.8-9.8-9.8l0,0c-5.4,0-9.8,4.4-9.8,9.8L124.9,425.9z"/>
<path id="XMLID_96_" class="st38" d="M143.8,407.8c3.1-3.8,0.8-8.9,0.8-8.9c0-5.4-4.4-9.8-9.8-9.8c-0.2,0-0.4,0-0.6,0
	c5.2,0.3,9.2,4.6,9.2,9.8c0,0,2.4,5.1-0.8,8.9c-3,3.7,3,11.1,0.8,18.1c-0.2,0.7-2.2,0.9-4.8,1c3.2,0,5.8-0.2,6-1
	C146.9,419,140.8,411.5,143.8,407.8z"/>
<path id="XMLID_95_" class="st46" d="M140.5,425.3L140.5,425.3c6.9,9.8,10,24.7,8,38.9l-0.1,0.4h-5.9c0,0,1.8-5.4,0-14.9
	c-1.1-5.7-4.3-10.8-9-14.3l-5.7,29.2h-5.5l5.5-39.4H140.5z"/>
<path id="XMLID_94_" class="st46" d="M173.9,368.7c0,0,2.3-1,1.3-4.3s-5-2.2-5-2.2s-2.4,3.6-1.5,4.9S173.9,368.7,173.9,368.7z"/>
<linearGradient id="XMLID_259_" gradientUnits="userSpaceOnUse" x1="134.0863" y1="383.7437" x2="173.8993" y2="383.7437">
	<stop  offset="0" style="stop-color:#FF7D8D"/>
	<stop  offset="0.2518" style="stop-color:#FF7684"/>
	<stop  offset="0.6689" style="stop-color:#FF646A"/>
	<stop  offset="0.9944" style="stop-color:#FF5252"/>
</linearGradient>
<path id="XMLID_93_" class="st48" d="M140.2,400.5c0,0,29.5-9.6,33.7-31.9l-5.5-1.7c0,0-21.7,24.2-30.9,24.4
	C128.4,391.5,140.2,400.5,140.2,400.5z"/>
<path id="XMLID_92_" class="st38" d="M172.9,368.7l0.9,0.3c-4.2,22.3-33.7,31.9-33.7,31.9l-0.5-0.4
	C143.1,399.2,169,389.5,172.9,368.7z"/>
<g id="XMLID_89_" class="st33">
	<path id="XMLID_91_" class="st6" d="M132.3,435.4l-5.7,29.2h1.3l5.5-28.3C133.1,436,132.7,435.7,132.3,435.4z"/>
	<path id="XMLID_90_" class="st6" d="M140.5,425.3h-1.3c6.9,9.8,10,24.7,8,38.9l-0.1,0.4h1.3l0.1-0.4
		C150.5,449.9,147.5,435.1,140.5,425.3z"/>
</g>
<path id="XMLID_88_" class="st38" d="M173.3,368.5c0,0,2.3-1,1.3-4.3c-0.2-0.9-0.9-1.7-1.8-2.1c1.2,0.2,2.1,1.1,2.4,2.3
	c1,3.3-1.3,4.3-1.3,4.3c-1.3-0.1-2.5-0.3-3.7-0.7C171.2,368.2,172.3,368.4,173.3,368.5z"/>
<path id="XMLID_87_" class="st42" d="M124.9,424.8l-12,25.2c7,0.3,13.9,1.2,20.8,2.5c13.2,2.5,19.5-3.8,19.5-3.8l-8.5-23.9H124.9z"
	/>
<linearGradient id="XMLID_260_" gradientUnits="userSpaceOnUse" x1="121.7617" y1="466.4103" x2="133.2681" y2="466.4103">
	<stop  offset="0" style="stop-color:#FF7D8D"/>
	<stop  offset="0.2518" style="stop-color:#FF7684"/>
	<stop  offset="0.6689" style="stop-color:#FF646A"/>
	<stop  offset="0.9944" style="stop-color:#FF5252"/>
</linearGradient>
<path id="XMLID_86_" class="st49" d="M128.1,464.5c0,0,6.3,1.3,5,3.8h-11.3l0.6-3.8H128.1z"/>
<linearGradient id="XMLID_261_" gradientUnits="userSpaceOnUse" x1="141.9213" y1="466.4103" x2="153.4276" y2="466.4103">
	<stop  offset="0" style="stop-color:#FF7D8D"/>
	<stop  offset="0.2518" style="stop-color:#FF7684"/>
	<stop  offset="0.6689" style="stop-color:#FF646A"/>
	<stop  offset="0.9944" style="stop-color:#FF5252"/>
</linearGradient>
<path id="XMLID_85_" class="st50" d="M148.2,464.5c0,0,6.3,1.3,5,3.8h-11.3l0.6-3.8H148.2z"/>
<path id="XMLID_84_" class="st51" d="M143.8,368.8c0,0-15.1,21.4-8.2,30.2l-27.1-0.6C108.5,398.4,116.1,349.9,143.8,368.8z"/>
<path id="XMLID_83_" class="st38" d="M143.8,368.8c-3.9-2.7-7.4-4-10.6-4.3c2.6,0.8,5.1,2.1,7.4,3.7c0,0-15.1,21.4-8.2,30.2
	l-23.8-0.6c-0.1,0.4-0.1,0.6-0.1,0.6l27.1,0.6C128.7,390.2,143.8,368.8,143.8,368.8z"/>
<path id="XMLID_82_" class="st38" d="M144.7,424.8h-1.9l8.5,23.9c0,0-4.1,4.1-12.5,4.4c9.7,0.3,14.4-4.4,14.4-4.4L144.7,424.8z"/>
<path id="XMLID_81_" class="st38" d="M128.1,464.5h-1.3c0,0,6.3,1.3,5,3.8h1.3C134.4,465.8,128.1,464.5,128.1,464.5z"/>
<path id="XMLID_80_" class="st38" d="M148.2,464.5H147c0,0,6.3,1.3,5,3.8h1.3C154.5,465.8,148.2,464.5,148.2,464.5z"/>
<rect id="XMLID_79_" x="410.9" y="248.2" class="st4" width="241.3" height="9.1"/>
<linearGradient id="XMLID_262_" gradientUnits="userSpaceOnUse" x1="531.4913" y1="244.2103" x2="531.4913" y2="556.6829" gradientTransform="matrix(1 0 0 -1 0 802)">
	<stop  offset="0" style="stop-color:#808080;stop-opacity:0.25"/>
	<stop  offset="0.54" style="stop-color:#808080;stop-opacity:0.12"/>
	<stop  offset="1" style="stop-color:#808080;stop-opacity:0.1"/>
</linearGradient>
<rect id="XMLID_78_" x="406.1" y="245.3" class="st52" width="250.7" height="312.5"/>
<rect id="XMLID_77_" x="410.9" y="257.4" class="st6" width="241.3" height="289.5"/>
<circle id="XMLID_76_" class="st7" cx="416.5" cy="253" r="2.2"/>
<circle id="XMLID_75_" class="st8" cx="422.6" cy="253" r="2.2"/>
<circle id="XMLID_74_" class="st9" cx="428.6" cy="253" r="2.2"/>
<g id="XMLID_72_">
	<rect id="XMLID_73_" x="426" y="270.3" class="st10" width="211.7" height="5.7"/>
</g>
<linearGradient id="XMLID_263_" gradientUnits="userSpaceOnUse" x1="470.4584" y1="410.1295" x2="470.4584" y2="507.1472" gradientTransform="matrix(1 0 0 -1 0 802)">
	<stop  offset="0" style="stop-color:#808080;stop-opacity:0.25"/>
	<stop  offset="0.54" style="stop-color:#808080;stop-opacity:0.12"/>
	<stop  offset="1" style="stop-color:#808080;stop-opacity:0.1"/>
</linearGradient>
<rect id="XMLID_71_" x="424.8" y="294.9" class="st53" width="91.3" height="97"/>
<rect id="XMLID_70_" x="426.7" y="298" class="st6" width="87.6" height="90.7"/>
<linearGradient id="XMLID_264_" gradientUnits="userSpaceOnUse" x1="592.0455" y1="361.6206" x2="592.0455" y2="458.6383" gradientTransform="matrix(1 0 0 -1 0 802)">
	<stop  offset="0" style="stop-color:#808080;stop-opacity:0.25"/>
	<stop  offset="0.54" style="stop-color:#808080;stop-opacity:0.12"/>
	<stop  offset="1" style="stop-color:#808080;stop-opacity:0.1"/>
</linearGradient>
<rect id="XMLID_69_" x="546.4" y="343.4" class="st54" width="91.3" height="97"/>
<rect id="XMLID_68_" x="548.3" y="346.5" class="st6" width="87.6" height="90.7"/>
<linearGradient id="XMLID_265_" gradientUnits="userSpaceOnUse" x1="534.0869" y1="272.1628" x2="534.0869" y2="338.9412" gradientTransform="matrix(1 0 0 -1 0 802)">
	<stop  offset="0" style="stop-color:#808080;stop-opacity:0.25"/>
	<stop  offset="0.54" style="stop-color:#808080;stop-opacity:0.12"/>
	<stop  offset="1" style="stop-color:#808080;stop-opacity:0.1"/>
</linearGradient>
<rect id="XMLID_67_" x="426.7" y="463.1" class="st55" width="214.8" height="66.8"/>
<rect id="XMLID_66_" x="431.1" y="467.5" class="st10" width="206.6" height="59.8"/>
<polygon id="XMLID_65_" class="st23" points="435.8,473.2 637.4,473.2 637.4,467.5 430.8,467.5 430.8,527.4 435.8,527.4 "/>
<linearGradient id="XMLID_266_" gradientUnits="userSpaceOnUse" x1="624.6242" y1="325.1079" x2="624.6242" y2="403.2274" gradientTransform="matrix(1 0 0 -1 -154.5 707.52)">
	<stop  offset="0" style="stop-color:#808080;stop-opacity:0.25"/>
	<stop  offset="0.54" style="stop-color:#808080;stop-opacity:0.12"/>
	<stop  offset="1" style="stop-color:#808080;stop-opacity:0.1"/>
</linearGradient>
<path id="XMLID_62_" class="st56" d="M499.7,317.9c-14.1-16.4-38.7-18.2-55.1-4.1c-16.4,14.1-18.2,38.7-4.1,55.1
	c14.1,16.4,38.7,18.2,55.1,4.1c8.6-7.4,13.6-18.2,13.6-29.6C509.2,334,505.8,325,499.7,317.9z M484,366.7
	c-12.9,7.6-29.5,3.4-37.1-9.5c-7.6-12.9-3.4-29.5,9.5-37.1s29.5-3.4,37.1,9.5c2.5,4.2,3.8,8.9,3.8,13.8
	C497.3,352.9,492.2,361.8,484,366.7L484,366.7z"/>
<path id="XMLID_61_" class="st7" d="M489.7,326.5l8.6-7.4c-7.1-8.2-17.3-12.9-28.2-12.9v11.3C477.7,317.5,484.8,320.8,489.7,326.5z"
	/>
<path id="XMLID_60_" class="st19" d="M470.1,369.2c-3.7,0-7.3-0.8-10.7-2.3l-4.7,10.3c11.1,5,23.9,4.3,34.3-1.9l-5.8-9.8
	C479.3,367.9,474.8,369.2,470.1,369.2z"/>
<path id="XMLID_59_" class="st18" d="M507.3,343.4c0-8.9-3.2-17.5-9-24.2l-8.6,7.4c9.3,10.8,8.1,27.1-2.6,36.4
	c-1.2,1-2.4,1.9-3.7,2.7l5.8,9.8C500.4,368.6,507.3,356.5,507.3,343.4z"/>
<path id="XMLID_58_" class="st14" d="M444.3,343.4c0-14.3,11.6-25.8,25.8-25.8l0,0v-11.3c-20.5,0-37.2,16.6-37.2,37.2
	c0,14.6,8.5,27.8,21.8,33.9l4.7-10.3C450.3,362.7,444.3,353.5,444.3,343.4z"/>
<linearGradient id="XMLID_267_" gradientUnits="userSpaceOnUse" x1="593.6205" y1="430.919" x2="593.6205" y2="442.2587" gradientTransform="matrix(1 0 0 -1 0 802)">
	<stop  offset="0" style="stop-color:#808080;stop-opacity:0.25"/>
	<stop  offset="0.54" style="stop-color:#808080;stop-opacity:0.12"/>
	<stop  offset="1" style="stop-color:#808080;stop-opacity:0.1"/>
</linearGradient>
<rect id="XMLID_57_" x="560.2" y="359.7" class="st57" width="66.8" height="11.3"/>
<rect id="XMLID_56_" x="560.9" y="360.4" class="st14" width="65.5" height="10.1"/>
<rect id="XMLID_55_" x="560.9" y="377.4" class="st7" width="47.9" height="10.1"/>
<rect id="XMLID_54_" x="560.9" y="394.4" class="st19" width="32.8" height="10.1"/>
<rect id="XMLID_53_" x="560.9" y="411.4" class="st18" width="59.2" height="10.1"/>
<rect id="XMLID_52_" x="426.7" y="407" class="st4" width="93.9" height="5.7"/>
<rect id="XMLID_51_" x="426.7" y="416.4" class="st4" width="52.9" height="5.7"/>
<rect id="XMLID_50_" x="489" y="416.4" class="st4" width="18.3" height="5.7"/>
<rect id="XMLID_49_" x="489" y="437.2" class="st4" width="18.3" height="5.7"/>
<rect id="XMLID_48_" x="426.7" y="435.3" class="st4" width="52.9" height="5.7"/>
<rect id="XMLID_47_" x="426.7" y="425.9" class="st4" width="93.9" height="5.7"/>
<rect id="XMLID_46_" x="545.1" y="295.5" class="st4" width="93.9" height="5.7"/>
<rect id="XMLID_45_" x="545.1" y="304.9" class="st4" width="52.9" height="5.7"/>
<rect id="XMLID_44_" x="607.5" y="304.9" class="st4" width="18.3" height="5.7"/>
<rect id="XMLID_43_" x="607.5" y="325.7" class="st4" width="18.3" height="5.7"/>
<rect id="XMLID_42_" x="545.1" y="323.8" class="st4" width="52.9" height="5.7"/>
<rect id="XMLID_41_" x="545.1" y="314.4" class="st4" width="93.9" height="5.7"/>
<linearGradient id="XMLID_268_" gradientUnits="userSpaceOnUse" x1="574.7209" y1="218.6141" x2="574.7209" y2="232.4737" gradientTransform="matrix(1 0 0 -1 0 802)">
	<stop  offset="0" style="stop-color:#808080;stop-opacity:0.25"/>
	<stop  offset="0.54" style="stop-color:#808080;stop-opacity:0.12"/>
	<stop  offset="1" style="stop-color:#808080;stop-opacity:0.1"/>
</linearGradient>
<circle id="XMLID_40_" class="st58" cx="574.7" cy="576.5" r="6.9"/>
<circle id="XMLID_39_" class="st7" cx="574.7" cy="576.5" r="5"/>
<linearGradient id="XMLID_269_" gradientUnits="userSpaceOnUse" x1="478.3332" y1="226.1739" x2="478.3332" y2="302.4021" gradientTransform="matrix(1 0 0 -1 0 802)">
	<stop  offset="0" style="stop-color:#808080;stop-opacity:0.25"/>
	<stop  offset="0.54" style="stop-color:#808080;stop-opacity:0.12"/>
	<stop  offset="1" style="stop-color:#808080;stop-opacity:0.1"/>
</linearGradient>
<rect id="XMLID_38_" x="370" y="499.6" class="st59" width="216.7" height="76.2"/>
<rect id="XMLID_37_" x="376.3" y="502.7" class="st6" width="206.6" height="59.8"/>
<line id="XMLID_36_" class="st60" x1="383.8" y1="551.3" x2="575.4" y2="551.3"/>
<linearGradient id="XMLID_270_" gradientUnits="userSpaceOnUse" x1="399.2701" y1="252.6332" x2="399.2701" y2="287.2824" gradientTransform="matrix(1 0 0 -1 0 802)">
	<stop  offset="0" style="stop-color:#808080;stop-opacity:0.25"/>
	<stop  offset="0.54" style="stop-color:#808080;stop-opacity:0.12"/>
	<stop  offset="1" style="stop-color:#808080;stop-opacity:0.1"/>
</linearGradient>
<rect id="XMLID_35_" x="385.1" y="514.7" class="st61" width="28.3" height="34.6"/>
<rect id="XMLID_34_" x="386.7" y="516.3" class="st14" width="25.2" height="32.1"/>
<rect id="XMLID_33_" x="544.5" y="539.3" class="st19" width="25.2" height="10.1"/>
<rect id="XMLID_32_" x="497.2" y="526.1" class="st18" width="25.2" height="22.7"/>
<rect id="XMLID_31_" x="441.8" y="529.8" class="st7" width="25.2" height="18.9"/>
<rect id="XMLID_30_" x="376.3" y="562.6" class="st7" width="206.6" height="8.8"/>
<linearGradient id="XMLID_271_" gradientUnits="userSpaceOnUse" x1="385.0955" y1="218.6141" x2="385.0955" y2="232.4737" gradientTransform="matrix(1 0 0 -1 0 802)">
	<stop  offset="0" style="stop-color:#808080;stop-opacity:0.25"/>
	<stop  offset="0.54" style="stop-color:#808080;stop-opacity:0.12"/>
	<stop  offset="1" style="stop-color:#808080;stop-opacity:0.1"/>
</linearGradient>
<circle id="XMLID_29_" class="st62" cx="385.1" cy="576.5" r="6.9"/>
<circle id="XMLID_28_" class="st7" cx="385.1" cy="576.5" r="5"/>
<rect id="XMLID_27_" x="371.2" y="505.3" class="st7" width="5" height="66.1"/>
<rect id="XMLID_26_" x="371.2" y="505.3" class="st63" width="5" height="66.1"/>
<linearGradient id="XMLID_272_" gradientUnits="userSpaceOnUse" x1="459.0897" y1="177.9001" x2="531.1096" y2="177.9001" gradientTransform="matrix(1 0 0 -1 -154.5 707.52)">
	<stop  offset="0" style="stop-color:#808080;stop-opacity:0.25"/>
	<stop  offset="0.54" style="stop-color:#808080;stop-opacity:0.12"/>
	<stop  offset="1" style="stop-color:#808080;stop-opacity:0.1"/>
</linearGradient>
<path id="XMLID_25_" class="st64" d="M376.6,512.3c0-0.1,0-0.1,0-0.2s0-0.2,0-0.3c0-0.1,0-0.1,0-0.2c0-0.1,0-0.2-0.1-0.3
	s0-0.1-0.1-0.2s-0.1-0.2-0.1-0.3l-0.1-0.2c-0.1-0.1-0.1-0.2-0.2-0.3l-0.1-0.1c-0.1-0.1-0.2-0.2-0.3-0.3l0,0l0,0
	c-0.5-0.5-1.1-1-1.8-1.3c0.5-0.6,0.9-1.2,1.1-1.9c0.1-0.2,0.1-0.4,0.2-0.6c0-0.1,0-0.1,0-0.2c0-0.1,0-0.2,0-0.4c0-0.1,0-0.1,0-0.2
	c0-0.1,0-0.2,0-0.3s0-0.1,0-0.2c0-0.1,0-0.2-0.1-0.3c0-0.1,0-0.1-0.1-0.2c0-0.1-0.1-0.2-0.1-0.3l-0.1-0.2c-0.1-0.1-0.1-0.2-0.2-0.3
	l-0.1-0.1c-0.1-0.1-0.2-0.2-0.3-0.3l0,0l0,0c-0.6-0.7-1.4-1.2-2.2-1.5c0,0-4,1.5-4.3,3.1c-2.9,0.6-20,4.2-31.8,3.9l-0.1-0.2
	c0-3.9-2.1-7.4-5.6-9.2v-4c0-0.2,0-0.3,0-0.5l0,0c0-0.2,0-0.3-0.1-0.5l0.1,0l0.3-0.2l0.5-0.3l0.3-0.2c0.2-0.2,0.4-0.3,0.6-0.5
	l0.2-0.2c0.1-0.1,0.3-0.3,0.4-0.4l0.2-0.2c0.2-0.2,0.3-0.4,0.5-0.5l0.2-0.2c0.1-0.2,0.3-0.4,0.4-0.6l0.2-0.3
	c0.1-0.2,0.2-0.4,0.4-0.6l0.1-0.2c0.1-0.3,0.3-0.5,0.4-0.8l0.1-0.2c0.1-0.2,0.2-0.4,0.2-0.6l0.1-0.2c0.1-0.3,0.2-0.6,0.2-0.9
	c0-0.1,0-0.1,0-0.2c0-0.3,0.1-0.5,0.1-0.8c0-0.1,0-0.2,0-0.3c0-0.3,0.1-0.6,0.1-1c0-1.8-0.5-3.5-1.3-5.1c0.7-0.2,1.1-0.3,1-0.4
	c-0.3-0.3-0.5-0.7-0.8-1l-0.3-0.3c-0.2-0.2-0.4-0.4-0.6-0.6l-0.3-0.3c-0.2-0.2-0.4-0.4-0.6-0.5l-0.3-0.3c-0.2-0.2-0.5-0.4-0.7-0.6
	l-0.2-0.1c-0.3-0.2-0.6-0.4-0.9-0.6l-0.3-0.2c-0.2-0.1-0.4-0.2-0.6-0.3l-0.4-0.2l-0.5-0.3l-0.4-0.2c-0.2-0.1-0.4-0.2-0.6-0.2
	l-0.4-0.1c-0.3-0.1-0.6-0.2-0.9-0.3l-0.4-0.1l-0.5-0.1l-0.5-0.1l-0.4-0.1l-0.5,0h-0.4h-0.5c-0.3,0-0.5,0-0.8,0l0,0
	c-6.4,0.5-12.1,6.2-12.1,15.1v7.4H321v3.4c-3.7,1.7-6.1,5.4-6.1,9.5v28.7l-8.6,39.3h-0.1l-1.7,7.5l12.1,2l0,0l0.5,0.1
	c1.3-0.5-0.9-3.1-1.8-5c-0.1-0.2-0.2-0.4-0.3-0.6c-0.1-0.4-0.2-0.8-0.2-1.2l9.3-30.4h0l0.2-0.7c0,0,11.8,5,14.8,15.2
	c2.5,8.2,0.9,13.5,0.3,15.2h0v0.1c-0.1,0.3-0.2,0.5-0.2,0.5h0.2v5.6h12.8c1.2-0.6-1.3-2.3-2.6-3.8c-0.4-0.5-0.7-1-0.8-1.6h0.2
	l0.1-0.5c3.3-15.2-1.7-30.9-13.1-41.4c0,0,0-0.1,0.1-0.1c1.2-3.7,1.9-7.5,2.2-11.4c9.8,0.9,22.7,0.3,32.5-7.3
	c0.9-0.7,1.8-1.5,2.7-2.3c0.8-0.1,2.3-0.5,3.1-2.9c0.1-0.2,0.1-0.4,0.2-0.6c0-0.1,0-0.1,0-0.2C376.6,512.6,376.6,512.4,376.6,512.3z
	"/>
<linearGradient id="XMLID_273_" gradientUnits="userSpaceOnUse" x1="324.1848" y1="519.372" x2="371.3933" y2="519.372">
	<stop  offset="0" style="stop-color:#8815FF"/>
	<stop  offset="0.2342" style="stop-color:#7F1EFF"/>
	<stop  offset="0.622" style="stop-color:#6537FF"/>
	<stop  offset="0.9944" style="stop-color:#4755FF"/>
</linearGradient>
<path id="XMLID_24_" class="st65" d="M325.5,523.4c0,0,29.5,9.4,45.9-6.3l-3.5-4.5c0,0-31.8,7.1-39.3,1.9
	C321,509.3,325.5,523.4,325.5,523.4z"/>
<path id="XMLID_23_" class="st38" d="M370.6,516.5l0.6,0.8c-16.4,15.7-45.9,6.3-45.9,6.3s-0.1-0.2-0.2-0.6
	C328.6,524,355.3,531.2,370.6,516.5z"/>
<path id="XMLID_22_" class="st66" d="M370.8,517.1c0,0,2.4,0.5,3.5-2.7c1.1-3.2-2.8-4.7-2.8-4.7s-4.1,1.5-4,3.1
	S370.8,517.1,370.8,517.1z"/>
<path id="XMLID_21_" class="st38" d="M370.4,516.6c0,0,2.4,0.5,3.5-2.7c0.4-0.9,0.2-1.9-0.3-2.7c0.8,0.9,1.1,2.1,0.7,3.3
	c-1.1,3.3-3.5,2.7-3.5,2.7c-1-0.8-1.8-1.7-2.6-2.7C368.8,515.2,369.6,515.9,370.4,516.6z"/>
<linearGradient id="_x34_635430b-7803-4f1f-9770-b56b2b482545_1_" gradientUnits="userSpaceOnUse" x1="339.472" y1="578.4752" x2="351.7703" y2="578.4752">
	<stop  offset="0" style="stop-color:#8815FF"/>
	<stop  offset="0.2342" style="stop-color:#7F1EFF"/>
	<stop  offset="0.622" style="stop-color:#6537FF"/>
	<stop  offset="0.9944" style="stop-color:#4755FF"/>
</linearGradient>
<path id="_x34_635430b-7803-4f1f-9770-b56b2b482545" class="st67" d="M339.5,575.6h8.8c-0.1,0.8,0.2,1.7,0.8,2.2
	c1.2,1.4,3.5,3,2.4,3.6h-12V575.6z"/>
<path id="XMLID_20_" class="st38" d="M348.4,577.8c-0.6-0.6-0.9-1.4-0.8-2.2h0.6c-0.1,0.8,0.2,1.7,0.8,2.2c1.2,1.4,3.5,3,2.4,3.6
	h-0.6C352,580.8,349.6,579.2,348.4,577.8z"/>
<linearGradient id="a892faa3-7b18-4010-9d55-72c2aac7ddb8_1_" gradientUnits="userSpaceOnUse" x1="306.7064" y1="578.2579" x2="318.9398" y2="578.2579">
	<stop  offset="0" style="stop-color:#8815FF"/>
	<stop  offset="0.2342" style="stop-color:#7F1EFF"/>
	<stop  offset="0.622" style="stop-color:#6537FF"/>
	<stop  offset="0.9944" style="stop-color:#4755FF"/>
</linearGradient>
<path id="a892faa3-7b18-4010-9d55-72c2aac7ddb8" class="st68" d="M308.3,573.8l8.2,1.3c-0.2,1-0.1,2,0.4,2.9
	c0.9,1.9,2.9,4.2,1.7,4.8l-11.9-1.9L308.3,573.8z"/>
<path id="XMLID_19_" class="st38" d="M316.2,578c-0.5-0.9-0.6-1.9-0.4-2.9l-7.6-1.3v-0.1l8.2,1.3c-0.2,1-0.1,2,0.4,2.9
	c0.9,1.9,2.9,4.2,1.7,4.8l-0.5-0.1C319,582,317.1,579.8,316.2,578z"/>
<path id="XMLID_18_" class="st66" d="M326.6,506.1L326.6,506.1c-2.5,0-4.4-2-4.4-4.4v-4.3c0-2.5,2-4.4,4.4-4.4l0,0
	c2.5,0,4.4,2,4.4,4.4v4.3C331,504.2,329,506.1,326.6,506.1z"/>
<circle id="XMLID_17_" class="st66" cx="326.4" cy="487.7" r="9.8"/>
<path id="XMLID_16_" class="st38" d="M329.9,501.7v-4.3c0-0.3,0-0.6-0.1-0.9c4.8-2.5,6.7-8.4,4.3-13.2c-1.6-3.1-4.7-5.1-8.2-5.3h0.6
	c5.4,0,9.8,4.4,9.8,9.8c0,3.7-2.1,7.1-5.3,8.8c0.1,0.3,0.1,0.6,0.1,0.9v4.3c0,2.4-1.9,4.4-4.4,4.4c-0.2,0-0.4,0-0.6,0
	C328.2,505.8,329.9,503.9,329.9,501.7z"/>
<linearGradient id="XMLID_274_" gradientUnits="userSpaceOnUse" x1="316.4019" y1="518.8444" x2="338.2694" y2="518.8444">
	<stop  offset="0" style="stop-color:#8815FF"/>
	<stop  offset="0.2342" style="stop-color:#7F1EFF"/>
	<stop  offset="0.622" style="stop-color:#6537FF"/>
	<stop  offset="0.9944" style="stop-color:#4755FF"/>
</linearGradient>
<path id="XMLID_15_" class="st69" d="M316.4,536.8c0,0,19,2.1,19.7,0c4.9-15.1,0-27,0-27c0-5.4-4.4-9.8-9.8-9.8l0,0
	c-5.4,0-9.8,4.4-9.8,9.8L316.4,536.8z"/>
<path id="XMLID_14_" class="st42" d="M316.4,536.8l-8.6,39.4h8.6l8.9-29.2c0,0,11.1,4.8,14,14.3c2.9,9.5,0,14.9,0,14.9h9.2l0.1-0.4
	c3.1-14.3-1.7-29.1-12.5-38.9l0,0"/>
<path id="XMLID_12_" class="st38" d="M335,536.8c4.9-15.1,0-27,0-27c0-5.2-4-9.5-9.2-9.8c0.2,0,0.4,0,0.6,0l0,0
	c5.4,0,9.8,4.4,9.8,9.8c0,0,4.9,11.9,0,27c-0.3,0.8-2.8,1-6.1,1C332.8,537.7,334.8,537.4,335,536.8z"/>
<g id="XMLID_9_" class="st33">
	<path id="XMLID_11_" class="st6" d="M325.1,547.6l-8.7,28.7h-1.3l8.9-29.2C324,547.1,324.4,547.3,325.1,547.6z"/>
	<path id="XMLID_10_" class="st6" d="M334.8,536.9h1.3c10.8,9.8,15.6,24.7,12.5,38.9l-0.1,0.4h-1.3l0.1-0.4
		C350.4,561.6,345.6,546.8,334.8,536.9z"/>
</g>
<linearGradient id="XMLID_275_" gradientUnits="userSpaceOnUse" x1="322.9248" y1="513.0721" x2="370.1333" y2="513.0721">
	<stop  offset="0" style="stop-color:#8815FF"/>
	<stop  offset="0.2342" style="stop-color:#7F1EFF"/>
	<stop  offset="0.622" style="stop-color:#6537FF"/>
	<stop  offset="0.9944" style="stop-color:#4755FF"/>
</linearGradient>
<path id="XMLID_8_" class="st70" d="M324.2,517.1c0,0,29.5,9.4,45.9-6.3l-3.5-4.5c0,0-31.8,7.1-39.3,1.9
	C319.8,503,324.2,517.1,324.2,517.1z"/>
<path id="XMLID_7_" class="st38" d="M369.3,510.2l0.6,0.8c-16.4,15.7-45.9,6.3-45.9,6.3s-0.1-0.2-0.2-0.6
	C327.3,517.7,354,524.9,369.3,510.2z"/>
<path id="XMLID_6_" class="st66" d="M369.5,510.8c0,0,2.4,0.5,3.5-2.7c1.1-3.2-2.8-4.7-2.8-4.7s-4.1,1.5-4,3.1
	C366.2,508.1,369.5,510.8,369.5,510.8z"/>
<path id="XMLID_5_" class="st38" d="M369.1,510.3c0,0,2.4,0.5,3.5-2.7c0.4-0.9,0.2-1.9-0.3-2.7c0.8,0.9,1.1,2.1,0.7,3.3
	c-1.1,3.3-3.5,2.7-3.5,2.7c-1-0.8-1.8-1.7-2.6-2.7C367.6,508.9,368.3,509.6,369.1,510.3z"/>
<path id="XMLID_4_" class="st42" d="M327.1,484.5l-0.6,13.2h-13.9v-7c0-14.1,14.9-19.5,23.3-8.1
	C336.2,482.9,327.1,484.5,327.1,484.5z"/>
<path id="XMLID_3_" class="st38" d="M324,476.5c3.5,0.3,7.2,2.2,10,6.1c0.2,0.3-8.8,1.9-8.8,1.9l-0.6,13.2h1.9l0.6-13.2
	c0,0,9-1.6,8.8-1.9C332.6,478,328.1,476.2,324,476.5z"/>
<linearGradient id="XMLID_276_" gradientUnits="userSpaceOnUse" x1="91.4342" y1="327.1485" x2="144.8212" y2="234.6795" gradientTransform="matrix(0.9834 -0.1817 0.1817 0.9834 -103.7362 31.4478)">
	<stop  offset="0" style="stop-color:#00FFC9"/>
	<stop  offset="0.1736" style="stop-color:#04FFC0"/>
	<stop  offset="0.4623" style="stop-color:#10FEA6"/>
	<stop  offset="0.8282" style="stop-color:#23FD7D"/>
	<stop  offset="0.9944" style="stop-color:#2DFC68"/>
</linearGradient>
<path id="XMLID_13_" class="st71" d="M32.4,323.9l-11-88.4c-1.3-10.4,9.1-18.3,18.8-14.2l82,34.6c9.6,4.1,11.3,17,2.9,23.4l-71,53.7
	C45.7,339.4,33.7,334.3,32.4,323.9z"/>
</svg>
